<svg xmlns="http://www.w3.org/2000/svg" viewBox="0 0 1000 1000">
  <defs/>
  <path fill="transparent" d="M-28-30h1056v1060H-28z"/>
  <g fill="#d8d0c8">
    <path d="M365 244c0-5-4-9-8-10l-4-1 1-2v-6c-2-6-8-6-13-4l-2 1c-2-12-4-24-8-35-2-7-6-12-8-18l-4-8-6-8c-2-6 3-13 4-19 0-3 0-8-3-8-3-1-6 2-8 3l-8 4-5 3-9-6-9-3-10-1-11-1c-8 0-16 0-24 2l-13 4-7 4-11-11c-3-1-8-7-11-4-4 4 0 13 0 17l2 9v6c0 2-2 3-3 4-9 10-15 24-18 37-2 6-2 14-3 21l-1 10-9-7c-4-1-8 0-11 4l-2 6 2 6c-2-1-4-2-6-1s-3 4-4 6c-1 6 1 12 6 15 7 4 14 3 21 4l7-1c2 6 7 13 11 19l8 8 10 8c4 3 9 5 14 6l-2 6c-3 0-8 5-9 7-2 2 1 4 3 4l4-2v-1l2 6c0 2 3 2 4 0l1-7 2 1 3 4c2 2 5-1 3-4s-5-6-9-6l3-6 3 1c9 2 18 4 27 3 9 0 19-1 27-4l13-4h1c2 3 4 6 3 8v2c-2 2-3 6-3 8s3 3 5 2l2-5v-1l4 4c2 2 6 0 4-3l-4-5 6 3c2 2 6-1 4-4l-8-3c-1-1-3-2-5-1l-3-7 5-2 9-7 11-9 6-10c2-2 2-6 5-8l1-1 9 1c6 0 13-1 18-4 4-2 9-4 8-9zm-197 8l-10-1h-6c-5 0-12-2-12-8l1-4c1-3 1-2 3-2l4 1 2-3c0-4-4-8-1-11 4-7 11 2 14 5l15 18-10 5zm154 7l-5 7-8 10-9 8-10 5-4 1-8 3a103 103 0 01-52 3c-7-2-17-3-23-7l-8-7-9-7c-5-6-11-14-12-21l7-2 2-3c1-1 2-2 0-3l-13-16 1-3c-3-5-1-11 0-16l3-18c3-11 8-24 16-33 2-3 6-5 6-9l-1-6-2-10-2-7c1-2 0-3-1-3h1l3 2c5 4 9 7 12 13h4l9-4 12-4c7-2 15-2 23-2l11 1 9 1 9 3 9 6h3l5-3 5-3 5-3 2-1v4l-5 15c0 5 3 8 6 11l7 14 7 17 7 32-6 7-7 10-4 5c-2 0-4 1-3 3v1l2 2 2 1 6 2-2 4zm36-12l-7 4h-17l-7-1-5-1 3-5c3-4 6-7 8-12l5-4 1-1c3-2 6-3 9-2 5 3-2 7 1 11 2 3 6 1 9 3 3 3 3 6 0 8z"/>
    <path d="M268 205c-1-3-5-4-7-5h-14l-10 4-1 2c-1 1-2 3-1 4l9 13c2 3 4 7 8 9 2 1 4 1 6-2 3-3 5-8 7-12 1-4 4-10 3-13zm-8 12c-1 3-3 8-5 9-2 2-2 2-3 0l-3-4-9-13 4-3 11-2c2 0 7 1 8 3l-3 10zM215 172h-1c-4-3-12-1-17 1s-11 7-13 13c-5 13 4 29 18 31 13 2 28-4 32-18 3-14-7-25-19-27zm14 27c-4 10-16 14-26 13-11-1-17-14-14-24 1-5 5-8 10-10l7-2h4l2 1c11 1 21 10 17 22z"/>
    <path d="M222 188c-2-7-11-13-18-8l-6 4c-2 3-3 6-3 10 0 8 8 14 16 13 9-1 14-10 11-19zm-15 3h2c2 3 1 3-2 1l-1-1h1zM295 172l-1-1c-4-3-12-1-17 1s-11 7-13 13c-4 13 4 29 18 31 13 2 28-4 32-18 3-13-7-25-19-26zm14 26c-4 11-16 15-26 13-11-1-17-13-14-24 1-4 5-8 10-10l7-2h4l2 2c11 0 21 10 17 21z"/>
    <path d="M302 188c-2-8-11-13-18-9l-6 4c-2 3-4 7-3 11 0 8 8 13 16 12 9-1 14-10 11-18zm-15 2h2c2 3 1 3-2 1v-1zM235 241l-1-1c-1-2-3 0-3 1l-2 2-3 2-1-1-2-3c-2-2-6 2-4 4 3 2 4 6 8 6l4-3 4-4v-3zM257 244l-2 2-1 1v1l-1-1-2-1-2-3c-2-3-6 1-3 3 2 3 4 7 8 7 3 0 4-4 7-6 2-2-2-6-4-3zM283 239v1l-1 1-2 4c-1 1-1 2-2 1l-2-2-1-1c-1-3-6-2-5 1s3 4 5 6c2 1 4 2 6 1l4-4 3-6c1-3-4-5-5-2zM244 262l-2 4-2 2-2-2-2-2-1-1c-1-3-5-1-4 2 0 2 2 3 3 5 1 1 3 3 5 3 4 2 6-5 8-7 3-3-1-6-3-4zM268 262l-1 3-1 2-1 1-3-2-3-4c-3-1-5 3-3 5 3 2 6 8 11 6 2 0 3-2 4-4l2-7c0-3-5-3-5 0z"/>
  </g>
  <g fill="#d8d0c8">
    <path d="M271 62zM396-12c-3-8-8-15-15-19 4-5 8-11 9-17 2-7 2-14 0-21a52 52 0 00-20-25c-3-2-6-5-10-6v-16c0-3-1-8-5-7-3 0-5 4-7 6l-7 9-18-1h-1v-4-6l-3-2-7 5c-1-4-1-12-5-12-3 0-3 2-4 3l-1 6-1 5c-4-3-8-7-11-6-2 1-2 2-2 4l2 7-6-1-12-1-4 1c-3 0-4-2-5-3l-9-9c-1-1-3-1-4 1-2 3-1 7-1 11v7c0 3 3 2-1 3-9 3-17 8-22 16-6 8-9 18-8 28l4 16c1 4 4 7 7 10-22 6-28 42-17 61l2 1c5-1 10-6 13-9l3-5c2 6 7 12 10 17 4 5 11 10 17 13l5 2-5 8 2 3c2 1 3-1 3-2l5-7h1l-1 7v6c2 2 6-1 4-4v0l1-3 1-4 1 6 1 3v3c0 3 5 3 5 0l-1-6-1-5a158 158 0 0058-2l-1 9c0 3 5 3 5 0l1-5v-5l1-1 2 12c0 3 5 3 5 0l-1-6-1-6v-1l2-1 2 4 1 3 1 3c2 2 7 1 5-2l-2-4-1-3-2-2v-1l4-3c7-4 11-10 17-16 3-5 7-10 8-16l11 11 3-1c3-3 4-10 4-14 1-7-1-14-4-20zM224 19l-6 5-3 2c-9-17-2-51 21-52l1 1c3 3 0 12 0 15l-6 16c-1 4-4 8-7 13zM378 7c-1 6-5 14-9 18-5 6-9 11-16 15-6 5-13 7-21 9-7 2-14 2-21 2-16 1-32 0-46-5-8-3-14-7-20-12l-5-9c-3-3-6-7-6-11v-2l2-5c3-6 5-14 6-20 1-4 2-12-1-15 0-1-1-3-3-3h-4l-1-2c-4-3-6-7-8-12l-2-15c0-9 4-20 11-26 3-3 8-5 12-7 2-1 6-1 8-3 2-3 0-7 0-10v-6-3l6 6c3 3 4 4 7 4h14l13 1h1c1-1 2-2 1-4l-2-5 1 1 6 4c1 1 3 0 3-1l2-7v-2l2 7 3 1 7-5c-1 4-5 9 1 11h11l12 1c2 1 3-1 3-3l6-7 4-4c2-2 0 0 0 1v18c0 3 2 3 4 2l7 4 8 7c5 5 9 11 11 17 1 6 2 13 0 19-1 5-5 12-9 16l-4-1-2 2-1 2c0 6-1 11 1 17a74 74 0 008 20zm16 10a54 54 0 01-19-31l-1-14c9 1 15 11 18 20a43 43 0 012 25z"/>
    <path d="M366-40l7-16c2-5 1-12 0-17-2-6-5-11-9-15-10-8-22-11-34-9-12 3-22 7-30 16-3-3-6-7-10-9a50 50 0 00-32-1c-5 2-9 5-12 9-6 9-9 19-8 29 1 6 1 10 4 15l7 8c-4 3-5 11-6 15-2 8-2 16 1 23 3 8 8 16 15 21l8 5c3 3 7 5 11 6 8 3 17 3 26 2 9 0 18 0 26-3 15-4 30-13 37-27 3-8 4-16 2-24-1-5-1-10-4-14l-5-7 6-7zm-3 20l2 14c1 8-2 17-7 24a69 69 0 01-49 19c-9 0-19 2-28-1-4-1-8-4-11-6l-11-8c-6-7-11-15-12-25l2-13c0-2 2-11 4-12l3-2-2-3c-4-2-6-5-8-9-3-4-3-9-3-13 0-10 2-18 9-26 6-7 16-8 25-7 4 1 9 2 13 5l9 7 3-1c13-15 38-21 55-9 5 3 9 6 10 12 2 5 2 11 1 15a47 47 0 01-12 23c-2 1-2 4 0 5l1 1c3 2 5 8 6 10z"/>
    <path d="M320 10l-2 3v1l-4-4c-2-2-5 1-3 4 2 2 4 5 7 5 2 0 3-1 4-3l3-5c0-3-5-4-5-1zM296 12a16 16 0 00-2 3l-1-1-1-2c0-1-2-2-3-1-2 0-2 1-2 3l2 3 4 4c3 1 5-3 7-6 2-2-1-5-4-3z"/>
  </g>
  <g fill="#d8d0c8">
    <path d="M179 56c-1-7-6-7-11-7l2-2 3-6c1-4 2-8-1-11-4-4-8-1-12 1l2-4 1-6c1-4 0-8-4-9s-8 3-11 5a76 76 0 00-8 8l-1-21-3-23c0-3 1-11-4-12-2-1-4 2-6 3l-7 7-4 4h-4l-1-1c-6-11-20-12-32-11l2-4c1-2 2-4 0-5-3-4-8 1-12 4 0-4-1-9-4-10-6-4-7 7-8 13l-3-4-4-3c-2-2-7-5-10-3-2 2-1 5 0 7l3 2h-2l-11 2c-4 1-11 3-14 6l-1 1-10 4-8-11c-1-2-2-5-5-6-5-2-6 6-6 10-1 9-5 17-7 26-2 8-4 17-3 26l-14-9c-3-3-10-7-15-6-7 1-2 10 2 16-5-1-11 0-12 3-2 4-1 7 1 10l4 4c-4 0-7 2-9 5-2 4 2 10 6 12 5 4 12 6 18 7 8 3 17 3 26 3l2 7 3 9-2 1c-5 6-14 9-23 10-6 1-14 1-19 6-3 4-2 8 2 10l6 2-4 1c-3 2-6 5-4 8s6 3 9 4l4-1-3 5c-1 6 6 6 10 4 14-5 27-14 36-27 2 3 4 4 6 5-2 2-3 4-3 7l-1 1c-2 4-12 5-16 4-3-1-5 4-2 5h2l2 1-1 3c-2 2 2 5 3 3l2-2 1-1v5c0 3 5 3 5 0l-1-9c3-1 6-2 8-5l4 2c3 0 7-2 10-4 1-1 3-3 5-3l5 3c-1 4-3 10 0 12-1 5-6 5-8 9l-4 3c-2 2 1 5 3 4l3-2v1c-1 3 3 4 4 2l2-3v1l2 2c2 3 6 1 4-2l-1-2-2-4-2-1 1-1 3-5c5 0 7-7 10-11l8 2h12a76 76 0 0036-8c6-3 11-8 15-12l10-17 6-10c14 2 30-4 41-13 5-4 10-8 8-14zM25-23c2-2 5-2 8-3l9-1 7 1c2 0 3-2 2-3 2 2 5 4 8 3 2-1 2-3 2-4l1-6 1 2v5c1 3 3 4 5 2l6-6c-1 3-3 6-1 8l2 2c9-2 22-2 29 5l-5 1c-7 0-13 2-18 6-6 4-11 9-15 14l-5 8-3 5c-1-5-4-9-6-13a44 44 0 00-30-26h3zm36 63c-2-1-10-8-9-10l4-3h1l7 1 5 2v1l-2 3-3 4-1 1c-1 2 0 2-2 1zm-74-53c0-1 5-18 3-18l5 7 6 9c2 2 3 1 4 0l2-1 6-1h11l15 9c4 4 7 9 9 15 2 4 6 9 7 14l-1 1c-1 2-5 3-7 5s-2 4 0 6l10 10c2 2 4 4 6 2 3-1 5-5 7-7 1-2 5-6 5-8 0-6-9-7-15-8l6-10 7-10c6-6 12-12 21-14l13-1c3 1 6 3 9 1 6-2 9-11 15-14v11l3 16 1 26c-5 3-8 9-12 13l-8 8-6 6-11 7-10 5a101 101 0 01-50-1c-8-2-14-6-21-10-6-3-12-8-18-13-7-4-14-8-19-15v-1c0-13 2-26 7-39zm-22 79l-15-5-9-4c-2-2-5-4-3-7 2-2 7-2 9-1 3 1 4-2 2-4-1-2-12-8-9-12 2-3 11 0 13 1 2 0 4-2 3-4l-7-10-1-4c1-1 4 1 5 1l10 7 12 8v1l2 19 4 14h-16zm4 64l-6 2c-2 1-5 3-3 0l7-7c1-2-1-4-3-4l-8 2h-8c0-2 7-3 9-4l8-5c2-1 1-5-1-5-5 1-12 4-16 1-4-4 10-6 13-6 10-2 21-5 28-13l5 10 2 5c-6 11-16 18-27 24zm151-40l-11 18-7 7c-3 3-7 4-11 5-6 3-12 4-19 5H53c-4 0-7-2-11-1h-1l-2 1-1 2-3 5v1c-3 0-4-1-3-3l2-5-1-3c-6-2-9-7-14-3l-8 4c-2 1-5 2-4-2l4-4c1-2 1-3-1-4l-8-7-4-8-9-21-3-8v-2l-3-11-2-11-1-10 12 9c7 4 13 10 21 14a90 90 0 0047 15c8 0 16 0 25-2 8-1 14-5 21-8 7-4 11-11 17-17l7-8a59 59 0 016-5l-1 7v11a89 89 0 01-15 39zm52-27l-11 8c-8 5-19 8-29 8a83 83 0 008-25l1-22v-1l5-5 8-7c1-1 3-3 5-1l-1 5c-1 4-4 8-4 11-1 2 0 4 2 4l5-2 7-3c6 1-7 16-8 18s1 4 2 4c3-1 7-2 10-1 4 2 3 6 0 9z"/>
    <path d="M46 80l-3 2-1 2-1 1v-1l-1-1-1-2c0-4-5-4-5 0 0 3 2 8 6 9s6-4 9-7c2-2-1-6-3-3zM73 80l-4 5h-1l-1-1v-1c-1-3-6-3-5 0 0 3 3 7 7 7s5-4 7-6c3-2-1-6-3-4zM36 95l-1 2-1 2v-1l-1-1h-1c0-2-1-3-2-3s-3 1-3 3c1 3 4 7 7 7 4 0 5-4 7-7 1-2-3-5-5-2zM60 96l-1 2-1 1h-1l-1-3h-4v4c2 2 3 5 6 4l4-2 2-3c2-2-2-6-4-3zM90 93c-1 0-3 0-3 2l-1 2-1 2v-1-1l-2-2c-2 0-3 1-3 2 0 3 3 8 6 7 2 0 3-2 4-3l2-5-2-3zM51 114zM51 114zM51 114zM51 114c3-1 1-5-2-4l-2 2h-1l-2-2c-2-2-6 1-3 4 1 1 3 4 5 4l4-2 1-1v-1 0zM74 109c-2 0-2 1-3 2v2l-3-1c-2-2-6 1-3 3l2 2 1 1c2 1 4 2 5 1l4-8-3-2zM20-9C14-9 8-8 4-3S-2 9-2 15c0 12 12 24 24 23 5 0 12-5 15-8 4-4 7-11 7-16C46 0 32-8 20-9zm19 24c0 3-2 8-5 11-2 2-7 6-11 7-9 2-20-10-20-18C3 10 5 5 7 1c3-4 8-5 13-5 10 0 21 7 19 19zM121 2l-6-6-6-3-4-1h-3c-6 0-12-1-17 3s-7 10-8 16c-2 13 8 24 19 27 7 1 12 1 18-4 4-3 8-8 10-14 1-6 0-13-3-18zm-2 14c0 5-3 10-7 13-4 4-8 5-14 4-10-3-18-11-16-22 2-4 3-9 6-12 5-4 11-2 16-2l10 4c4 4 6 10 5 15z"/>
    <path d="M24 11h-1l-2-2-3 1-2 3-1 3c0 2 1 3 3 4 3 1 7-1 8-4 1-2 0-4-2-5zM104 15v-3c-3-3-7-3-10 1-2 3-1 9 4 9 3 0 5-3 6-5v-2z"/>
  </g>
  <path d="M121 265c-7 0-15 2-22 5v-19-20-19c-1-5-1-10-4-15l-2-2c-5 1-7 5-9 9l-3 8c-2 4-6 3-10 4l-22 3-21 1-22 1-24-3-11-1c-4 0-6 0-9-4l-11-18h-3c-4 2-3 8-3 11l-1 21v23l1 10v10l-8-4h-20c-2 0-3 1-3 3l3 5 3 8c3 5 5 11 9 15l15 9 4 2 1 6 1 8 3 11a51 51 0 0010 14c2 2 2 3 2 6-1 2 0 6 1 8v1l-2 5-1 2-1 1c-3 1-7 2-8 5s4 4 5 1v2c-3 3 1 6 3 4 2-1 2-3 2-4l1 1v-1 2l1 1c2 2 6-1 4-3v-1l-1-1-2-2-1-2 1-1 1-2 2-4 3-1 5-6c1-2 1-2 3 0l4 3c8 4 19 5 28 5 9 1 19 0 28-3l5-1c2-1 3 1 5 2l8 2 2 3 2 2-2 9c0 3 4 5 5 1l1-3 4 2c1 0 3-1 3-3l-1-1h4c3 0 3-5 0-5l-6-1h-2l-3-3-2-2 3-2c2-4-1-7-1-10v-1l2-2 6-3c4-2 6-6 9-9 2-4 5-7 6-11a150 150 0 004-17c9-5 18-12 24-20 3-4 16-26 4-25zm-174 36l-14-8c-4-4-6-9-8-13l-3-8-2-2h12c7 0 11 4 15 8 4 5 7 9 9 15l2 10c-3 0-7 0-11-2zm133 31c-2 3-3 6-6 8l-10 7c-2 0-3 1-3 3-1 2 3 8 1 10l-3 1-8-4c-2-2-3-2-6-1-17 6-37 7-54 1-4-1-6-4-9-6h-5l-3 4-2 3c-4 2-1-8-2-10 0-3-3-5-5-7-3-4-6-7-8-12l-2-13-1-8 3 1 3 2h1l2-2c1-5-1-11-2-16-1-6-5-12-9-17l-3-3c3-4 1-10 0-14v-22-20l1-9v-6l10 17c4 4 9 3 14 3 17 1 33 5 50 3l21-1 11-1 12-2c6-1 12 0 16-5l4-8 4-7 2 16v18 38l-6 7c-3 5-6 10-7 16-1 4-1 12 2 16h5c-2 7-3 15-8 20zm38-53l-8 12c-6 6-15 13-24 16v-12l6-12c6-8 16-12 26-13 3-1 3-1 3 1 0 3-2 6-3 8z" fill="#d8d0c8"/>
  <path d="M34 276c-1-3-6-4-9-4H14l-4 1-3 4 5 9c2 4 8 10 13 7 3-2 5-6 7-9 1-2 3-5 2-8zm-5 2l-1 2-4 6c-1 1-2 3-4 1-2 0-3-2-3-3l-3-4-1-2c5-1 10-2 15 0h1z" fill="#d8d0c8"/>
  <g fill="#d8d0c8">
    <path d="M10 314v-1 1c0-1 0-1 0 0zM17 312h-3l-2 2-1 1v-1h-1v-1 0c-1-3-5-2-5 1s3 5 6 6c1 0 3 0 4-2l2-3v-3z"/>
  </g>
  <g fill="#d8d0c8">
    <path d="M33 313l-2 1v1h-1 1l-1-1-2-2c-2-3-5 1-3 3l5 5 6-3c3-2-1-6-3-4zM31 315z"/>
  </g>
  <path d="M6 326l-3 2v1l-1-1v-1l-3-2-2 2c-1 3 2 6 5 7s6-2 6-6c1-1-1-2-2-2zM25 325l-2 3-1 1v-1l-2-3c-2-2-6 1-4 4 2 2 3 5 7 5 3 0 4-3 5-5 2-3-1-6-3-4zM47 324c-1 1-3 3-3 5l-1-1c0-3-5-3-5 0s4 7 7 6l3-3 2-4c3-2-1-6-3-3zM14 340l-1 2-2-1c0-3-5-3-5 0s3 6 6 6c1 1 3 0 4-1l2-3c2-2-2-6-4-3zM36 339l-2 4c0 1 0 0 0 0h-1l-1-2c-3-2-6 1-4 4 2 2 4 4 7 3l3-3 2-2c2-3-2-6-4-4zM64 262c-4 0-7 2-10 4-4 3-5 7-7 10-2 2 2 5 4 2 3-3 4-7 8-10 5-2 12 1 13 7 0 3 5 3 5 0 0-6-7-13-13-13z" fill="#d8d0c8"/>
  <g fill="#d8d0c8">
    <path d="M382 507l-8-17a73 73 0 00-35-42l6-8 5-15c1-9-2-17-6-26-3-8-8-16-16-20l-9-4c-3-2-1-8 0-11 1-5 0-13-6-11-4 1-7 5-10 7-2 2-3 5-6 6h-9l-32 1h-29c-5 0-9-7-12-10-2-2-5-4-8-2-2 2-3 7-4 10l-1 13-10 7-9 8c-5 7-6 14-7 22-1 9-1 17 2 25 1 4 4 10 7 13l-2 1-3 3-7 7a88 88 0 00-23 32c-2 7-5 14-5 21-1 4 0 8 5 8 4 1 8-2 11-4 10-4 21-10 27-18h1c9 17 26 25 42 32l5 1-1 2v11l-6 10c-1 3 2 5 4 3l3-6 1 4c0 2 1 4 3 5 1 2 4 1 4-1l-3-10c4 2 8 6 10 9 2 2 6-2 3-4-3-4-8-9-14-10v-11l4 1h15l17-1 1 8 1 1c-3 3-3 8-6 11-1 2 2 5 4 3l1-1 3-5 1 6c1 3 5 2 5-1v-1l-2-6h1l1 1 2 1c1 3 6 1 4-2l-3-3-7-4v-3l-1-6a110 110 0 0017-4c3 3 4 7 6 11l7 10c3 4 6 10 12 11 7 1 7-5 5-11l3 2c3 2 7 3 9-1v-6l4 1c4 1 6-2 6-6-1-5-4-10-7-14l-4-6-2-4-4-5 3-3 7-17 4 5 7 6 17 10c3 1 8 3 11 1s1-7 0-10zm-207 1l-14 8c-2 1-7 5-10 4-4 0 1-14 2-16 3-12 9-22 17-30l11-11 4-4-1 5-1 14c0 7 1 13 3 19-3 5-7 8-11 11zm161 20l7 11c1 1 3 6 2 7-1 0-8-4-10-7l-2-1c-2-2-5 0-4 3l2 2 4 8c2 4-3 0-4-1l-8-7c-2-3-6 0-5 3l6 12c2 7-6-2-7-4l-8-12-6-10a441 441 0 0026-13l4 4c1 2 1 4 3 5zm-1-25c-4 8-9 13-17 17-7 4-15 6-23 9a97 97 0 01-27 5c-9 0-17 2-26 0a130 130 0 01-43-24l-7-12 4-2 9-5 19-8c14-5 27-6 42-5 13 1 26 5 39 10 6 1 11 4 17 6l9 5 4 2v2zm3-6l-7-4-8-4-18-7c-13-4-26-8-39-9-14-1-28 0-41 5l-18 7-9 4c-3 1-5 4-8 4l-2-10v-13l2-7 2-8v-2l-2-3c-2 0-4-5-5-7-2-3-4-7-4-10-2-7 0-14 0-21 1-7 4-14 9-19l9-7 7-4 1-2v-2l2-14 1-4v-1l2 2 3 2 6 8c3 2 6 1 10 1h28l27-1h13c3-1 5-4 7-6l5-5c3-2 3-2 3 1l-1 11c-1 6 3 7 8 9 8 3 14 10 18 18 4 10 8 20 4 31-1 5-4 9-6 13l-2 4c-2 0-3 3-1 4v2l2 1c1 8 4 16 4 24 0 6 0 13-2 19zm37 16l-7-4-14-9-5-5-4-5v-6c1-10-2-19-4-29 7 4 13 9 17 15 7 8 10 19 15 28l5 13c1 3 0 3-3 2z"/>
    <path d="M324 396c-6-12-20-18-34-15-3 1-7 1-10 3l-8 8-5 9-4 5c0-2 0-3-2-5-1-3-3-5-6-7-4-5-9-8-15-11-7-2-12-3-19 0-6 2-12 5-17 10-5 4-6 8-8 15-1 7-3 14-2 22 2 12 9 23 21 29s27 7 41 8l23-3 22-5c7-3 13-7 19-12 5-3 8-7 9-13 3-13 2-26-5-38zm-58 20h4v1c0 3-2 6-3 8l-4 5-3-4-4-5-3-6 13 1zm59 12l-2 10-7 6c-5 4-10 8-16 10-11 4-23 5-35 7-11 2-24 0-35-2-12-3-22-8-28-19s-3-25 0-35c2-7 7-11 12-14 7-3 14-6 21-4 6 2 12 5 16 10l7 7 1 6h-8l-2 1-1 1c-2 7 6 14 10 19 1 2 3 5 6 4 2 0 4-4 6-5 2-4 8-13 4-17-1-2-4-2-7-2l1-2c1-4 4-7 6-11 4-5 8-10 14-12 12-2 24 0 31 10 6 10 7 22 6 32z"/>
    <path d="M241 405c-3-4-8-6-12-6-11-2-21 7-22 18-2 11 4 21 16 23s21-8 22-19c1-5-1-12-4-16zm-1 18c-3 9-10 14-18 11-8-2-11-9-10-16s6-13 12-14l3 1c6-2 10 3 12 7 1 4 2 7 1 11zM317 414c-1-5-3-10-8-12-3-2-8-3-12-2-5-1-10 2-13 6-4 4-6 10-5 15 2 11 15 20 26 17 10-3 14-14 12-24zm-13 19c-7 3-18-4-20-11-1-4 0-9 3-12 1-2 4-4 8-5h4c3-1 7 1 9 2s4 5 4 8c2 7-1 15-8 18z"/>
    <path d="M226 415h-1c-2 0-3 1-3 2l-1 1c-1 2 0 4 2 5l3 2c3-1 4-3 4-5 0-3-1-5-4-5zM303 417h-1l-1-2h-5c-2 1-3 3-3 5 0 5 6 6 9 3 1-2 2-4 1-6z"/>
  </g>
  <g fill="#d8d0c8">
    <path d="M1179 56c-1-7-6-7-11-7l2-2 3-6c1-4 2-8-1-11-3-4-8-1-12 1l2-4 1-6c1-4 0-8-4-9s-8 3-11 5a76 76 0 00-8 8l-1-21-3-23c0-3 1-11-4-12-2-1-4 2-6 3l-7 7-4 4h-4l-1-1c-6-11-20-12-32-11l2-4c1-2 2-4 0-5-3-4-8 1-12 4 0-4-1-9-4-10-6-4-7 7-8 13l-3-4-4-3c-2-2-7-5-10-3-2 2-1 5 0 7l3 2h-2l-11 2c-4 1-11 3-14 6l-1 1-10 4-8-11c-1-2-2-5-5-6-5-2-6 6-6 10-1 9-5 17-7 26-2 8-4 17-3 26l-14-9c-3-3-10-7-15-6-7 1-2 10 2 16-5-1-11 0-12 3-2 4-1 7 1 10l4 4c-4 0-7 2-9 5-2 4 2 10 6 12 5 4 12 6 18 7 8 3 17 3 26 3l2 7 3 9-2 1c-5 6-14 9-23 10-6 1-14 1-19 6-3 4-2 8 2 10l6 2-4 1c-3 2-6 5-4 8s6 3 9 4l4-1-3 5c-1 6 6 6 10 4 14-5 27-14 36-27 2 3 4 4 6 5-2 2-3 4-3 7l-1 1c-2 4-12 5-16 4-3-1-5 4-2 5h2l2 1-1 3c-2 2 2 5 3 3l2-2 1-1v5c0 3 5 3 5 0l-1-9c3-1 6-2 8-5l4 2c3 0 7-2 10-4 1-1 3-3 5-3l5 3c-1 4-3 10 0 12-1 5-6 5-8 9l-4 3c-2 2 1 5 3 4l3-2v1c-1 3 3 4 4 2l2-3v1l2 2c2 3 6 1 4-2l-1-2-2-4-2-1 1-1 3-5c5 0 7-7 10-11l8 2h12a76 76 0 0036-8c6-3 11-8 15-12l10-17 6-10c14 2 30-4 41-13 5-4 10-8 8-14zm-154-79c2-2 5-2 8-3l9-1 7 1c2 0 3-2 2-3 2 2 5 4 8 3 2-1 2-3 2-4l1-6 1 2v5c1 3 3 4 5 2l6-6c-1 3-3 6-1 8l2 2c9-2 22-2 29 5l-5 1c-7 0-13 2-18 6-6 3-11 9-15 14l-5 8-3 5c-1-5-4-9-6-13a44 44 0 00-30-26h3zm36 63c-2-1-10-8-9-10l4-3h1l7 1 5 2v1l-2 3-3 4-1 1c-1 2 0 2-2 1zm-74-53c0-1 5-18 3-18l5 7 7 9h3l2-1 6-1h11l15 9c4 4 7 9 9 15 2 4 6 9 7 14v1c-1 2-6 3-8 5s-2 4 0 6l10 10c2 2 4 4 6 2 3-1 5-5 7-7 1-2 5-6 5-8 0-6-9-7-15-8l6-10 7-10c6-6 12-12 21-14l13-1c3 0 6 2 9 1 6-3 9-11 15-14v11l3 15 1 26-12 13-8 8-6 7-11 7-10 4a101 101 0 01-51-1c-7-2-13-5-20-9l-18-13c-7-5-14-8-19-15v-1c0-13 2-26 7-39zm-22 79l-15-5-9-4c-2-2-5-4-3-7 2-2 7-2 9-1 3 1 4-2 3-4-2-2-13-8-10-12 2-3 11 0 13 1 2 0 4-2 3-4l-7-10-1-4c1-1 4 1 5 1l10 7 12 8v1l2 19 4 14h-16zm4 64l-6 2c-2 1-5 3-3 0l7-7c1-2-1-4-3-4l-8 2h-8c0-2 7-3 9-4l8-5c2-1 1-5-1-5-5 1-12 4-16 1-4-4 10-6 13-6 10-2 21-5 28-13l5 10 2 5c-6 11-16 18-27 24zm151-40l-11 18-7 7c-3 3-7 4-11 5-6 3-12 4-19 5h-19c-4 0-7-2-11-1h-1l-2 1-1 2-2 5-1 1c-3 0-4-1-3-3l2-5-1-3c-6-2-9-7-14-3l-8 4c-2 1-5 2-4-2l4-4v-4c-3-3-7-4-9-7l-4-8-9-21-2-8-1-2-3-11-2-11V35l11 9c7 4 13 10 21 14a90 90 0 0047 15c8 0 17 0 25-2 8-1 14-5 21-8 7-4 11-11 17-17l7-8a59 59 0 016-5l-1 7v11a89 89 0 01-15 39zm52-27l-11 8c-8 5-19 8-29 8a83 83 0 008-25c1-7-1-15 1-22v-1l5-5 8-7c1-1 3-3 5-1l-1 5c-1 4-4 8-4 11-1 2 0 4 2 4l5-2 7-3c6 1-7 16-8 18s1 4 2 4c3-1 7-2 10-1 4 2 3 6 0 9z"/>
    <path d="M1020-9c-6 0-12 1-16 6s-6 12-6 18c0 12 12 24 24 23 5 0 12-5 15-8 4-4 7-11 7-16 2-14-12-22-24-23zm19 24c-1 3-2 8-5 11l-11 7c-10 2-20-10-20-18 0-5 1-10 4-14s8-5 13-5c10 0 21 7 19 19z"/>
  </g>
  <g fill="#d8d0c8">
    <path d="M959 376zM959 376zM1121 265c-7 0-15 2-22 5v-19-20-19c-1-5-1-10-4-15l-2-2c-5 1-7 5-9 9l-3 8c-2 4-6 3-10 4l-22 3-21 1-22 1-24-3-11-1c-4 0-6 0-9-4l-11-18h-3c-4 2-3 8-3 11l-1 21v33c1 2 2 8 1 10l-8-4h-20c-2 0-3 1-3 3l3 5 3 8c3 5 5 11 9 15l14 9 5 2 1 6 1 8 3 11a51 51 0 0010 14c2 2 2 3 2 6-1 2 0 6 1 8v1l-2 5-1 2-1 1c-3 1-7 2-8 5s4 4 5 1v2c-3 3 1 6 3 4 2-1 2-3 2-4l1 1v-1 2l1 1c2 2 6-1 4-3v-1l-1-1-2-2-1-2 1-1 1-2 2-4 3-1 5-6c1-2 1-2 3 0l4 3c8 4 19 5 28 5 9 1 19 0 28-3l5-1c2-1 3 1 5 2l8 2 2 3 2 2-2 9c0 3 4 5 5 1l1-3 4 2c1 0 2-1 2-3v-1h4c3 0 3-5 0-5l-6-1h-3l-2-3-2-2 3-2c1-4-1-7-1-10l-1-1 3-2 6-3c4-2 6-6 9-9 2-4 5-7 6-11a150 150 0 004-17c9-5 18-12 24-20 3-4 16-26 4-25zm-174 36l-14-8-8-13-3-8-2-2h12c7 0 11 4 15 8 4 5 7 9 9 15l2 10c-3 0-7 0-11-2zm133 31c-2 3-3 6-6 8l-10 7c-2 0-3 1-3 3-1 2 3 8 1 10l-3 1-8-4c-2-2-3-2-6-1-17 6-37 7-54 1-4-1-6-4-9-6h-5l-3 4-2 3c-4 2-1-8-2-10 0-3-4-5-5-7-3-4-6-7-8-12l-2-13-1-8 3 1 3 2h1l2-2c1-5-1-11-2-16-2-6-5-12-9-17l-3-3c3-4 1-10 0-14v-22-20l1-9v-6l10 17c4 4 9 3 14 3 17 1 33 5 50 3l21-1 11-1 12-2c5-1 12 0 16-5l4-8 4-7 2 16v18 38l-6 7c-3 5-6 10-7 16-1 4-1 12 2 16h5c-2 7-3 15-8 20zm38-53l-8 12c-6 6-15 13-24 16v-12l6-12c6-8 16-12 26-13 3-1 3-1 3 1 0 3-2 6-3 8z"/>
    <path d="M1006 326c-2 0-3 1-3 2v1l-1-1v-1l-3-2-2 2c-1 3 2 6 5 7s6-2 6-6c1-1-1-2-2-2zM986 260c-4 0-7 2-9 4l-9 10c-2 3 3 6 5 3 3-4 4-9 9-11 4-2 6-1 9 2l2 6c0 3 5 3 5 0 0-6-6-14-12-14z"/>
  </g>
  <g fill="#d8d0c8">
    <path d="M663 676l-7-17-9-18c-6-10-16-18-26-23l6-9c2-4 4-9 4-14 2-10-1-18-5-26s-8-16-16-21c-3-2-7-2-9-4-3-2-1-8-1-11 1-4 1-12-6-10-3 1-7 4-9 7l-6 5-9 1-33 1h-29c-4 0-8-8-11-10-2-2-6-4-9-2-2 2-3 7-3 9-1 5-2 9-1 14l-10 7-9 8c-5 7-7 13-8 22 0 8-1 17 2 25 2 3 4 10 8 13l-3 1-2 3-7 6a88 88 0 00-23 33l-6 21c0 4 1 8 5 8 4 1 8-2 12-4 9-4 20-10 27-19v1c9 16 26 25 43 31l4 2v2c0 3 1 7-1 11l-6 10c-1 3 3 5 5 2 1-1 1-4 3-5v4l3 5c2 2 5 0 4-2l-2-9c3 1 7 6 9 8 3 3 6-1 4-3-4-4-9-10-15-11l1-10 3 1h15l18-1c-1 2 0 5 1 7v2l-5 10c-2 3 2 6 3 3h1l3-6 1 7c1 3 5 2 5-1v-1l-1-7v1l2 1h1c1 3 6 2 5-1l-4-4-6-4-1-2v-6a110 110 0 0016-4l7 11 6 10c3 4 7 10 12 11 8 1 7-5 5-11l3 2c3 1 7 2 9-1l1-6 3 1c4 0 6-3 6-7 0-5-3-10-6-14l-4-5-3-5-4-4 3-4 7-16 4 4 8 7c5 4 10 7 16 9 3 2 8 4 11 2 4-2 1-7 0-11zm-207 2l-13 8-10 4c-4 0 1-14 2-17 3-11 8-21 17-30l11-10 4-5-1 5-2 15c1 6 1 13 3 19-2 5-7 8-11 11zm161 20l8 11 1 6c-1 1-7-4-10-6l-2-2c-2-2-5 1-4 3l3 3c1 2 3 5 3 8 2 4-3 0-4-1l-8-7c-2-3-6-1-5 2 2 4 5 8 6 13 2 6-5-2-7-4l-8-13-6-9a441 441 0 0027-13l3 4 3 5zm-1-25c-4 7-8 13-16 17l-24 9a97 97 0 01-26 5c-9 0-18 2-27-1a130 130 0 01-42-24c-4-3-6-7-8-11l5-3 8-4 20-8c13-5 27-6 41-5 13 1 27 5 39 9l17 7 10 4 4 3-1 2zm3-7l-7-4-8-3-18-7c-13-4-26-8-39-9-14-1-27 0-41 4l-18 7-9 5-8 4-1-10v-13l1-8 2-7v-3l-2-2c-2 0-4-6-5-7l-4-11c-1-7 0-14 1-21 0-7 3-13 9-18l9-8 6-4 1-2 1-1c-1-5 0-10 1-14l1-5 2 1 3 3 7 8c3 2 6 1 9 0l13 1h15l28-1h12c3-1 5-5 7-7l5-5c3-1 4-2 4 1l-2 12c-1 6 3 6 8 8 9 4 14 10 18 18 5 10 9 21 5 32l-7 13-2 3c-2 1-2 3-1 4v2l2 2c2 8 4 15 4 23 1 6 0 13-2 19zm38 16l-8-3-14-10-5-4-4-5 1-7c0-10-2-19-4-28 6 4 12 9 17 15 6 8 10 18 14 28l5 13c1 2 1 2-2 1z"/>
    <path d="M606 566c-7-13-21-18-34-15-4 0-8 1-10 3l-8 8-6 8-3 6-2-5-6-7c-5-5-9-9-16-11-6-3-12-3-19-1l-17 10c-4 5-6 9-7 15-2 8-3 15-2 22 1 13 9 24 20 30 12 6 28 7 41 7 8 0 16-2 23-3 8 0 16-2 23-5 6-2 13-7 18-11s8-7 9-14c3-12 2-26-4-37zm-58 19l4 1v1l-4 8-4 5-2-4-4-5-4-6h14zm58 13c0 3 0 7-2 10l-6 6c-6 3-11 7-17 9-11 5-23 5-34 7-12 2-24 1-36-2-11-2-22-7-28-19-5-10-2-24 0-35 2-6 7-10 13-13 6-4 13-7 20-5l17 10 6 8 2 6h-9-1l-2 2c-1 7 6 14 10 19 1 2 3 5 6 4 2 0 5-4 6-6 3-3 8-13 5-17l-7-2v-1c1-4 5-8 7-11 3-5 7-11 14-12 11-3 24 0 30 10s8 21 6 32z"/>
    <path d="M522 574c-3-3-7-5-12-5-11-2-20 7-22 17-1 11 5 21 16 23 12 3 21-7 22-18 1-5 0-13-4-17zm-1 19c-2 8-9 14-18 11-8-2-11-9-10-17 1-6 6-13 13-13h2c6-2 11 3 12 8 1 3 2 7 1 11zM598 584c-1-5-3-10-8-13-2-1-8-2-11-1-5-1-11 2-14 6-4 3-5 10-5 15 2 11 15 20 26 17 10-3 14-14 12-24zm-12 19c-8 2-18-4-20-11-1-4 0-9 2-12 2-2 5-5 8-5h3l2-1 8 2c3 2 4 6 4 9 2 7 0 15-7 18z"/>
    <path d="M508 585l-2-1-3 3v1c-1 2 0 4 1 5l3 1c3 0 4-2 4-5 1-2-1-4-3-4zM584 587v-1l-1-2h-6c-2 1-3 3-3 5 0 5 6 7 9 4 2-2 2-4 1-6z"/>
  </g>
  <g fill="#d8d0c8">
    <path d="M137 560c0-5-4-9-9-10l-3-1 1-2v-6c-3-6-9-6-14-4l-1 1c-2-12-5-24-9-35-2-7-5-12-8-18l-4-8-5-8c-3-6 3-13 4-19 0-3 0-8-4-8-2-1-5 2-8 3l-8 4-4 3-9-6-9-3-10-1-11-1c-8 0-16 0-25 2l-12 4-7 4-11-11c-3-1-8-7-12-4-4 4 1 13 1 17l2 9v6l-3 4c-9 10-15 24-18 37l-4 21v10l-9-7c-4-1-9 0-11 4l-2 6 1 6c-1-1-3-2-5-1s-3 4-4 6c-1 6 1 12 6 15 6 4 14 3 21 4l7-1c2 6 7 13 10 19 3 3 5 6 9 8l9 8c4 3 10 5 15 6l-2 6c-4 0-8 5-9 7-2 2 0 4 2 4l5-2 1 5c1 2 4 2 5 0l1-7 2 1 3 4c2 3 5-1 3-3-2-3-5-7-9-7l3-6 3 1c9 2 17 4 27 3 9 0 18-1 27-4l13-4h1c2 3 4 6 3 8v2c-2 2-3 6-3 8s3 3 5 2l2-5v-1l4 4c2 3 5 0 4-2l-4-6 6 3c2 2 6-1 3-3l-7-4c-1-1-3-2-5-1l-3-7 5-2 9-7 10-9 7-10c2-2 2-6 5-8l1-1 8 1c6 0 13-1 19-4 4-1 9-4 8-9zm-197 8c-4 1-7-1-10-1h-6c-6 0-12-2-12-8l1-4c1-2 0-2 2-1h5l2-3c0-3-4-7-1-11 4-6 11 2 13 5l16 19-10 4zm154 7l-5 7-9 10-8 8-11 5-3 1-9 3a103 103 0 01-51 3c-8-2-17-3-24-7l-7-7c-4-2-7-4-9-7-5-6-11-14-13-21l8-2c1 0 2-2 1-3 2 0 2-2 1-3l-13-16v-3c-2-5 0-11 0-16l3-18c4-11 9-24 16-33 3-3 6-5 7-9l-2-6-2-10-1-7-1-3c-1-1-1-1 0 0l4 2c5 4 9 7 12 13l3 1 10-5 11-4c8-2 16-2 24-2l10 1 9 1 9 3 10 6h2l5-3 6-3 4-3 2-1v4c-1 5-4 10-4 15-1 5 3 8 5 11l7 15 8 16 7 32h-1l-6 7-6 10-5 5c-1 0-3 1-3 3v1l2 2 2 1 6 2-1 4zm35-12c-1 2-4 3-6 4H99l-6-2 4-5 8-11 4-5h1l1-1c3-2 6-3 8-2 6 3-1 7 1 11 2 3 7 2 9 4 3 2 4 5 0 7z"/>
    <path d="M39 521c-1-3-4-4-7-5H19l-10 4-2 2c-1 1-2 3 0 4l8 13c3 3 4 7 8 9 3 1 5 1 7-2 3-3 5-8 6-12 2-4 5-9 3-13zm-8 12c-1 3-2 8-5 10-1 1-1 1-3-1l-2-4-9-13 4-3 10-2c2 0 8 1 8 3 1 2-2 8-3 10zM-14 488c-5-3-13-1-17 1-6 2-11 7-14 13-4 13 5 29 18 31 14 2 29-4 32-18 4-14-6-25-19-27zm14 27c-4 10-15 14-25 13-11-1-18-14-15-24 2-5 6-8 10-10l7-2h5l2 1c11 1 20 11 16 22z"/>
    <path d="M66 488l-1-1c-4-2-12-1-16 1-6 3-11 7-14 13-4 14 5 30 18 31 14 2 29-4 32-18 4-13-6-24-19-26zm14 26c-4 11-15 15-25 13-11-1-18-13-15-24 2-4 6-8 10-10l8-2h4l2 2c11 0 20 10 16 21z"/>
    <path d="M74 504c-3-8-11-13-18-9l-6 4c-3 3-4 7-3 11 0 8 8 13 16 12 9-1 13-10 11-18zm-15 2h2c2 3 1 3-3 1l1-1zM6 557v-1c-1-1-3 0-4 1l-2 2-2 3-1-1-2-3c-3-3-6 1-4 3s3 7 7 6c2 0 3-2 4-3l4-4v-3zM29 560l-2 2-1 1-1 1v-1l-2-1-2-3c-2-2-6 1-4 3 3 3 5 7 9 7 3 0 4-4 6-6 3-2-1-5-3-3zM55 555v1l-1 2-2 3c-1 1-1 2-2 1l-2-2-2-1c-1-3-5-1-4 2 0 2 3 3 5 5 1 1 3 2 5 1l5-4 3-6c1-3-4-5-5-2zM16 578l-3 4-1 2-2-2-2-2-1-1c-1-3-6-1-5 2l4 5c1 1 3 3 5 3 4 2 6-5 8-7s-1-6-3-4zM40 578l-2 4v1l-1 1-3-2c-1-1-2-3-4-3-2-2-5 2-2 4s6 8 10 7l4-5 3-7c0-3-5-3-5 0z"/>
  </g>
  <path d="M396 988c-3-8-8-15-15-19 4-5 8-11 9-17 2-7 2-14 0-21a52 52 0 00-20-25c-3-2-6-5-10-6v-16c0-3-1-7-5-7-3 0-5 4-7 6l-7 9-18-2h-1v-3-7l-3-1-7 5c-1-4-1-12-5-12-3 0-3 2-4 3l-1 6-1 5c-4-3-8-6-11-5-2 0-2 1-2 3l2 7-6-1-12-1-4 1c-3 0-4-2-5-3l-9-9c-1-1-3-1-4 1-2 3-1 7-1 11v7c0 3 3 3-1 3-9 3-17 8-22 16-6 8-9 18-8 28l4 16c1 4 4 7 7 10-22 6-28 42-17 61l2 1c5-1 10-6 13-9l3-5c2 6 7 12 10 17 4 5 11 10 17 13l5 2-5 8 2 3c2 1 3-1 3-2l5-7h1l-1 7v6c2 2 6-1 4-4v0l1-3 1-4 1 6 1 3v3c0 3 5 3 5 0l-1-6-1-5a158 158 0 0058-2l-1 9c0 3 5 3 5 0l1-5v-5l1-1 2 12c0 3 5 3 5 0l-1-6-1-6v-1l2-1 2 4 1 3 1 3c2 2 7 1 5-2l-2-4-1-3-2-2v-1l4-3c7-5 11-10 17-16 3-5 7-10 8-16l11 10h3c3-3 4-10 4-14 1-7-1-14-4-20zm-172 31l-6 5-3 2c-9-17-2-51 21-52l1 1c3 3 0 12 0 15l-6 16c-1 4-4 8-7 13zm154-12c-1 6-5 14-9 18-5 6-9 11-16 15-6 5-13 7-21 9l-21 3c-16 0-32-1-46-6-8-3-14-7-20-12l-5-9c-3-3-6-7-6-11v-2l2-5c3-6 5-13 6-20 1-4 2-12-1-15 0-1-1-3-3-3h-4l-1-2c-4-3-6-7-8-12l-2-15c0-9 4-20 11-26 3-3 8-5 12-7 2-1 6-1 8-3 2-3 0-7 0-10v-6-3l6 6c3 3 4 4 7 4h14l13 1h1c1-1 2-2 1-4l-2-5 1 1 6 4c1 1 3 0 3-1l2-7v-2l2 7 3 1 7-5c-1 4-5 9 1 11h11l12 1c2 1 3-1 3-3l6-7 4-4c2-2 0 0 0 1v18c0 3 2 3 4 2l7 5 8 6c5 5 9 11 11 17 1 6 2 13 0 19-1 5-5 12-9 16l-4-1-2 2-1 2c0 6-1 11 1 17a74 74 0 008 20zm16 10a55 55 0 01-19-31l-1-14c9 1 15 11 18 20a43 43 0 012 25z" fill="#d8d0c8"/>
  <path d="M366 960l7-16c2-5 1-12 0-17-2-6-5-11-9-15-10-8-22-11-34-8-12 2-22 6-30 15-3-3-6-7-10-8a50 50 0 00-32-2c-5 2-9 5-12 9-6 9-9 19-8 29 1 6 1 10 4 15 2 4 4 6 7 8-4 4-5 11-6 15-2 8-2 16 1 23 3 8 8 16 15 21l8 6 11 6c8 3 17 2 26 2 9-1 18-1 26-4 15-4 30-13 37-27 3-8 4-16 2-24-1-5-1-10-4-14l-5-7 6-7zm-3 20l2 14c1 8-2 17-7 24a69 69 0 01-49 19c-9 0-19 2-28-1-4-1-8-4-11-6l-11-8c-6-7-11-15-12-25l2-13c0-2 2-11 4-12l3-2v-1l-2-2c-4-2-6-5-8-9-3-4-3-9-3-14 0-9 2-17 9-25 6-7 16-8 25-7l13 4 9 8 3-1c13-15 38-21 55-9 5 3 9 6 10 12 2 5 2 11 1 15a47 47 0 01-12 23c-2 1-2 4 0 5l1 1c3 2 5 8 6 10z" fill="#d8d0c8"/>
  <path d="M275 924l-2-1c-5 0-11 1-14 4-4 3-6 9-6 14-1 9 5 20 15 21 6 1 11 1 16-3 4-3 7-7 7-12 1-10-7-21-16-23zm11 24c-2 8-11 11-18 9s-12-10-10-17c0-3 2-7 4-9s5-2 8-3h1c9 1 17 11 15 20zM315 946c-2-2-6-2-9-2-3-1-7 0-10 1-2 0-3 1-3 3v2c3 5 4 12 8 16 5 4 9-4 11-7s7-11 3-13zm-7 10l-4 5-3-6-3-6 6-1 5 1h2l-1 4-2 3zM286 988l-3 2-2 2v-1l-3-4c-3-1-6 3-3 5l2 3c1 2 2 3 4 3s3-1 4-3l2-1v-1s1-1 0 0c3-2 2-6-1-5z" fill="#d8d0c8"/>
  <g fill="#d8d0c8">
    <path d="M310 990c-3 0-4 2-5 4l-3-4c-3-2-6 2-4 4s3 6 7 6c2 0 3-2 4-3l1-1v-1c3-1 3-6 0-5zM310 994z"/>
  </g>
  <path d="M332 985l-1 3-1 2-2-2c-2-3-6 1-4 3s5 6 8 5c2-1 3-3 3-5l1-2 1-3c1-3-4-4-5-1zM338 923l-2 1c-3 0-7 1-9 4-4 3-6 10-7 15-1 11 8 18 19 19 11 2 18-9 18-19 1-12-7-20-19-20zm14 20c0 8-6 16-15 14-7-2-13-7-12-15l4-10c3-3 7-3 11-3l1-1c8 1 12 7 11 15zM272 936c-5 0-11 6-11 11 0 3 5 3 5 0 0-2 4-6 6-6 3 0 5 4 5 6 0 3 5 3 5 0 0-5-5-11-10-11z" fill="#d8d0c8"/>
  <path d="M352 945c-1-6-4-12-11-11-6 0-10 6-10 12 0 3 5 3 5 0s2-8 6-7c3 0 4 5 5 7 0 3 5 2 5-1z" fill="#d8d0c8"/>
  <g>
    <g fill="#d8d0c8">
      <path d="M179 1056c-1-7-6-7-11-7l2-2 3-6c1-4 2-8-1-11-4-4-8-1-12 1l2-4 1-6c1-4 0-8-4-9s-8 3-11 5a76 76 0 00-8 8l-1-21-3-23c0-4 1-11-4-12-2-1-4 2-6 3l-7 7-4 4h-4l-1-1c-6-11-20-12-32-11l2-4c1-2 2-4 0-5-3-4-8 0-12 4 0-4-1-9-4-10-6-4-7 7-8 12l-3-3-4-4c-2-1-7-4-10-2-2 2-1 5 0 7l3 2h-2l-11 2c-4 1-11 2-14 6l-1 1-10 4-8-11c-1-2-2-5-5-6-5-2-6 6-6 10-1 8-5 17-7 25-2 9-4 18-3 27l-14-9c-3-3-10-7-15-6-7 1-2 10 2 16-5-1-11-1-12 3-2 3-1 7 1 10l4 4c-4 0-7 2-9 5-2 4 2 10 6 12 5 4 12 6 18 8 8 2 17 2 26 2l2 7 3 9-2 1c-5 6-14 9-23 10-6 1-14 1-19 6-3 4-2 8 2 10l6 2-4 1c-3 2-6 5-4 8s6 3 9 4l4-1-3 5c-1 6 6 6 10 4 14-5 27-14 36-26l6 4c-2 2-3 4-3 7l-1 1c-2 4-12 5-16 4-3-1-5 4-2 5h2l2 1-1 3c-2 2 2 5 3 3l2-2 1-1v5c0 3 5 3 5 0l-1-9 8-5 4 1c3 1 7-1 10-3 1-1 3-3 5-3s3 2 5 3c-1 4-3 9 0 12-1 4-6 5-8 9-2 0-3 1-4 3-2 1 1 5 3 3l3-2v2c-1 3 3 4 4 2l2-3v1l2 2c2 3 6 1 4-2l-1-2-2-4-2-2h1l3-5c5 0 7-7 10-11l8 2h12a76 76 0 0036-8c6-3 11-8 15-12l10-18 6-9c14 1 30-4 41-13 5-4 10-8 8-14zM25 977c2-2 5-2 8-3l9-1 7 1c2 0 3-2 2-3 2 2 5 4 8 3 2-1 2-3 2-4l1-6 1 2v5c1 3 3 4 5 2l6-6c-1 3-3 6-1 8l2 2c9-2 22-2 29 5l-5 1c-7 0-13 2-18 6-6 3-11 9-15 14l-5 8-3 5c-1-5-4-9-6-13a44 44 0 00-30-26h3zm36 63c-2-1-10-8-9-10l4-3h1l7 1 5 2v1l-2 3-3 4-1 1c-1 2 0 2-2 1zm-74-53c0-1 5-18 3-18l5 7 6 9h4l2-1 6-1h11l15 9c4 4 7 9 9 15 2 4 6 9 7 14l-1 1c-1 2-5 3-7 5s-2 4 0 6l10 10c2 2 4 4 6 2 3-1 5-5 7-7 1-3 5-6 5-9 0-5-9-6-15-7l6-10 7-10c6-6 12-12 21-14l13-1c3 0 6 2 9 1 6-3 9-11 15-14v11l3 15 1 26-12 13-8 8-6 7-11 7-10 4a101 101 0 01-51-1c-7-2-13-5-20-9l-18-13c-7-5-14-8-19-15v-1c0-13 2-26 7-39zm-22 79l-15-5-9-4c-2-2-5-4-3-7 2-2 7-2 9-1 3 1 4-2 2-4-1-2-12-8-9-12 2-3 11 0 13 1 2 0 4-2 3-4l-7-10-1-4c1-1 4 1 5 1l10 7 12 9 2 19 4 14h-16zm4 64l-6 2c-2 1-5 3-3 0l7-7c1-2-1-4-3-4l-8 2h-8c0-2 7-3 9-4l8-5c2-1 1-5-1-5-5 1-12 4-16 1-4-4 10-6 13-6 10-2 21-5 28-13l5 10 2 5c-6 11-16 18-27 24zm151-40l-11 18-7 7c-3 3-7 4-11 5-6 3-12 4-19 5H53c-4 0-7-2-11-1h-1l-2 1-1 2-3 5v1c-3 0-4-1-3-3l2-5-1-3c-6-2-9-7-14-3l-8 4c-2 1-5 2-4-2l4-4c1-2 1-3-1-4l-8-7-4-8-9-21-3-8v-2l-3-11-2-11-1-10 12 9c7 4 13 10 21 14a90 90 0 0047 15c8 0 16 0 25-2 8-1 14-5 21-8 7-4 11-11 17-17l7-8a59 59 0 016-5l-1 7v11a89 89 0 01-15 39zm52-27l-11 8c-8 5-19 8-29 8a83 83 0 008-25l1-22v-1l5-5 8-7c1-1 3-3 5-1l-1 5c-1 4-4 8-4 11-1 2 0 4 2 4l5-2 7-3c6 1-7 16-8 18s1 4 2 4c3-1 7-2 10-1 4 2 3 6 0 9z"/>
      <path d="M20 991c-6 0-12 1-16 6s-6 12-6 18c0 11 12 24 24 23 5 0 12-5 15-8 4-4 7-11 7-16 2-14-12-22-24-23zm19 24c0 3-2 8-5 11-2 2-7 6-11 7-9 2-20-10-20-18 0-5 2-10 4-14 3-4 8-5 13-5 10 0 21 7 19 19zM121 1002l-6-6-6-3-4-1h-3c-6 0-12-1-17 3s-7 10-8 16c-2 13 8 24 19 27 7 1 12 1 18-4 4-3 8-8 10-14 1-6 0-13-3-18zm-2 14c0 5-3 10-7 13-4 4-8 5-14 4-10-3-18-11-16-22 2-4 3-9 6-12 5-4 11-2 16-2l10 4c4 4 6 10 5 15z"/>
    </g>
  </g>
  <g fill="#d8d0c8">
    <path d="M169 840l-7-17-9-19c-6-9-16-17-26-23l5-9c3-4 5-9 5-14 2-9-1-18-5-26s-8-16-16-21c-3-1-7-2-9-4-3-1-1-7-1-10 1-5 1-13-6-11-3 1-7 5-9 7l-6 6h-9l-33 1H14c-4 0-8-7-11-10-3-2-6-4-9-2-2 2-3 7-3 10-1 4-2 8-1 13l-10 7-9 8c-5 7-7 14-8 22-1 9-1 17 2 25 2 4 4 10 7 13l-2 1-2 3-7 7a88 88 0 00-23 32l-6 21c0 4 1 8 5 8 4 1 8-2 12-4 9-4 20-10 27-18 9 17 26 25 43 32l4 1-1 2c1 3 2 8 0 11l-6 10c-1 3 3 5 5 3l3-6v4l3 5c1 2 4 1 4-1l-2-10 9 9c3 2 6-2 4-4-4-4-9-9-15-11v-10l4 1h15l18-1c-1 2 0 5 1 8v1l-5 11c-2 2 2 5 3 3l1-1 3-5 1 6c1 3 5 2 5-1v-1l-1-6 2 1 1 1c1 3 6 1 5-2l-4-4-6-4-1-2v-6a110 110 0 0016-4l7 11 6 10c3 4 7 10 12 11 8 1 7-5 5-11l3 2c3 2 7 3 9-1l1-6 3 1c4 1 6-3 6-6 0-6-3-10-6-14l-4-6-3-4-4-5 3-3 7-17 4 4 8 7 16 10c3 1 8 3 11 1 4-2 1-7 0-10zm-207 1l-13 8c-3 1-7 5-10 4-4 0 1-14 2-16 3-12 9-22 17-30l11-11 4-4-1 5c-1 4-2 9-1 14 0 7 0 13 3 19-3 5-8 8-12 11zm161 20l8 11c0 1 2 6 1 7l-10-7-2-1c-2-2-5 0-4 3l3 2 4 8c1 4-3 0-5-1l-8-7c-2-3-6 0-4 3l6 12c1 7-6-2-8-4l-8-12c-2-4-3-7-6-10a441 441 0 0027-13l3 4 3 5zm-1-25c-4 7-8 13-16 17l-24 9a97 97 0 01-26 5c-9 0-18 2-27 0a130 130 0 01-42-24c-4-4-6-8-8-12l5-3 8-4 20-8c13-5 27-6 41-5 13 1 27 5 39 9l17 7 10 5 4 2-1 2zm3-6l-7-4-7-4-19-7c-12-4-26-8-39-9-14-1-27 0-41 5l-18 7-9 4-7 4-2-10v-13l1-8 2-7v-2c0-1 0-2-2-3-2 0-4-5-5-7l-4-10c-1-7 0-14 1-21 0-7 3-14 9-19l9-7 7-5v-1l1-2c-1-5 0-10 1-14l1-4v-1l2 2 3 2 7 8c3 2 6 1 9 1h28l28-1h12c3-1 5-4 8-7l5-4c2-2 3-3 3 1l-2 11c-1 6 3 6 8 9 9 3 14 9 18 18 5 10 9 20 5 31l-7 13-2 4c-1 0-2 2-1 4l1 1 1 2c2 8 4 15 4 24 1 6 0 13-2 19zm38 16l-8-4-14-9-5-5-4-5 1-6c0-10-2-19-4-29 6 4 12 9 17 15 6 8 10 19 14 28l5 13c1 3 1 3-2 2z"/>
    <path d="M112 729c-7-12-21-18-34-15-4 0-7 1-10 3l-8 8-6 8-3 6-2-5-6-7c-4-5-9-8-15-11-7-2-13-3-19 0-7 2-13 5-18 9-4 5-6 9-7 15-2 8-3 15-2 22 1 13 9 24 20 30 12 6 28 7 41 7 8 1 16-2 23-2a81 81 0 0041-16c6-4 8-8 10-14 2-13 1-26-5-38zm-58 20h4v1c0 3-2 6-4 8l-4 5-2-4-4-5-4-6 14 1zm58 12c0 3 0 7-2 10-1 3-4 4-6 6l-16 10c-12 4-23 4-35 7-11 2-24 0-35-2-12-3-23-8-29-19-5-11-2-25 0-35 2-7 7-11 13-14s13-6 21-4c6 2 11 5 16 10l6 7 2 6h-9l-1 1-2 1c-1 7 6 14 10 19 1 2 3 5 6 4 3 0 5-4 6-5 3-4 9-13 5-17-2-2-5-2-7-2v-2l7-11c3-5 7-10 14-12 11-2 24 0 30 10s8 21 6 32z"/>
    <path d="M28 738c-3-4-7-6-12-6-11-2-20 7-22 18-1 11 5 21 16 23 12 2 22-8 23-19 0-5-1-12-5-16zm-1 18c-2 8-9 14-18 11-8-2-11-9-10-16s6-13 13-14h2c6-2 11 3 12 8 1 4 2 7 1 11zM104 747c-1-5-3-10-8-12-2-1-7-3-11-2-5-1-10 2-14 6-3 4-5 10-4 15 1 11 15 20 25 17s15-14 12-24zm-12 19c-8 3-18-4-20-11-1-4 0-9 2-12l8-5h3l2-1c3 0 7 2 8 3 3 1 4 5 5 8 1 7-1 15-8 18z"/>
    <path d="M14 748h-2l-3 2v1c-1 2 0 4 1 5l3 2c3 0 4-3 4-5 1-3-1-5-3-5zM90 750l-1-2c-2-1-4-2-6-1l-3 6c0 4 6 6 9 3 2-2 2-4 1-6z"/>
  </g>
  <g fill="#d8d0c8">
    <path d="M1137 560c0-5-4-9-9-10l-3-1 1-2v-6c-3-6-9-6-14-4l-1 1c-2-12-5-24-9-35-2-7-5-12-8-18l-4-8-5-8c-3-6 3-13 4-19 0-3 0-8-4-8-2-1-5 2-8 3l-8 4-4 3-9-6-9-3-10-1-11-1c-8 0-16 0-25 2l-12 4-7 4-11-11c-3-1-8-7-12-4-4 4 1 13 1 17l2 9v6l-3 4c-9 10-15 24-18 37l-4 21v10l-9-7c-4-1-9 0-11 4l-2 6 1 6c-1-1-3-2-5-1s-3 4-4 6c-1 6 1 12 6 15 6 4 14 3 21 4l7-1c2 6 7 13 10 19 3 3 5 6 9 8l9 8c4 3 10 5 15 6l-2 6c-4 0-8 5-9 7-2 2 0 4 2 4l5-2 1 5c1 2 4 2 5 0l1-7 2 1 3 4c2 3 5-1 3-3-2-3-5-7-9-7l3-6 3 1c9 2 17 4 27 3 9 0 18-1 27-4l13-4h1c2 3 4 6 3 8v2c-2 2-3 6-3 8s3 3 5 2l2-5v-1l4 4c2 3 5 0 4-2l-4-6 6 3c2 2 6-1 3-3l-7-4c-1-1-3-2-5-1l-3-7 5-2 9-7 10-9 7-10c2-2 2-6 5-8l1-1 8 1c6 0 13-1 19-4 4-1 9-4 8-9zm-197 8c-4 1-7-1-10-1h-6c-6 0-12-2-12-8l1-4c1-2 0-2 2-1h5l2-3c0-3-4-7-1-11 4-6 11 2 13 5l16 19-10 4zm154 7l-5 7-9 10-8 8-11 5-3 1-9 3a103 103 0 01-51 3c-8-2-17-3-24-7l-7-7c-4-2-7-4-9-7-5-6-11-14-13-21l8-2c1 0 2-2 1-3 2 0 2-2 1-3l-13-16v-3c-2-5 0-11 0-16l3-18c4-11 9-24 16-33 3-3 6-5 7-9l-2-6-2-10-1-7-1-3c-1-1-1-1 0 0l4 2c5 4 9 7 12 13l3 1 10-5 11-4c8-2 16-2 24-2l10 1 9 1 9 3 10 6h2l5-3 6-3 4-3 2-1v4c-1 5-4 10-4 15-1 5 3 8 5 11l7 15 8 16 7 32h-1l-6 7-6 10-5 5c-1 0-3 1-3 3v1l2 2 2 1 6 2-1 4zm35-12c-1 2-4 3-6 4h-24l-6-2 4-5 8-11 4-5h1l1-1c3-2 6-3 8-2 6 3-1 7 1 11 2 3 7 2 9 4 3 2 4 5 0 7z"/>
    <path d="M986 488h-1c-4-3-12-1-16 1-6 2-11 7-14 13-4 13 4 29 18 31s29-4 32-18c4-14-6-25-19-27zm14 27c-4 10-15 14-25 13-11-1-18-14-15-24 2-5 6-8 10-10l7-2h5l2 1c11 1 20 11 16 22z"/>
    <path d="M994 505c-3-8-11-13-18-9l-6 4c-3 3-4 7-4 11 1 7 9 13 16 12 10-1 14-10 12-18zm-15 2h2c2 3 1 3-3 1v-1h1zM1006 557v-1c-1-1-3 0-4 1l-2 2-2 3-1-1-3-3c-2-3-5 1-3 3s3 7 7 6c2 0 3-2 4-3l4-4v-3z"/>
  </g>
  <g>
    <g fill="#d8d0c8">
      <path d="M1179 1056c-1-7-6-7-11-7l2-2 3-6c1-4 2-8-1-11-3-4-8-1-12 1l2-4 1-6c1-4 0-8-4-9s-8 3-11 5a76 76 0 00-8 8l-1-21-3-23c0-4 1-11-4-12-2-1-4 2-6 3l-7 7-4 4h-4l-1-1c-6-11-20-12-32-11l2-4c1-2 2-4 0-5-3-4-8 0-12 4 0-4-1-9-4-10-6-4-7 7-8 12l-3-3-4-4c-2-1-7-4-10-2-2 2-1 5 0 7l3 2h-2l-11 2c-4 1-11 2-14 6l-1 1-10 4-8-11c-1-2-2-5-5-6-5-2-6 6-6 10-1 8-5 17-7 25-2 9-4 18-3 27l-14-9c-3-3-10-7-15-6-7 1-2 10 2 16-5-1-11-1-12 3-2 3-1 7 1 10l4 4c-4 0-7 2-9 5-2 4 2 10 6 12 5 4 12 6 18 8 8 2 17 2 26 2l2 7 3 9-2 1c-5 6-14 9-23 10-6 1-14 1-19 6-3 4-2 8 2 10l6 2-4 1c-3 2-6 5-4 8s6 3 9 4l4-1-3 5c-1 6 6 6 10 4 14-5 27-14 36-26l6 4c-2 2-3 4-3 7l-1 1c-2 4-12 5-16 4-3-1-5 4-2 5h2l2 1-1 3c-2 2 2 5 3 3l2-2 1-1v5c0 3 5 3 5 0l-1-9 8-5 4 1c3 1 7-1 10-3 1-1 3-3 5-3s3 2 5 3c-1 4-3 9 0 12-1 4-6 5-8 9-2 0-3 1-4 3-2 1 1 5 3 3l3-2v2c-1 3 3 4 4 2l2-3v1l2 2c2 3 6 1 4-2l-1-2-2-4-2-2h1l3-5c5 0 7-7 10-11l8 2h12a76 76 0 0036-8c6-3 11-8 15-12l10-18 6-9c14 1 30-4 41-13 5-4 10-8 8-14zm-154-79c2-2 5-2 8-3l9-1 7 1c2 0 3-2 2-3 2 2 5 4 8 3 2-1 2-3 2-4l1-6 1 2v5c1 3 3 4 5 2l6-6c-1 3-3 6-1 8l2 2c9-2 22-2 29 5l-5 1c-7 0-13 2-18 6-6 3-11 9-15 14l-5 8-3 5c-1-5-4-9-6-13a44 44 0 00-30-26h3zm36 63c-2-1-10-8-9-10l4-3h1l7 1 5 2v1l-2 3-3 4-1 1c-1 2 0 2-2 1zm-74-53c0-1 5-18 3-18l5 7 7 9h3l2-1 6-1h11l15 9c4 4 7 9 9 15 2 4 6 9 7 14v1c-1 2-6 3-8 5s-2 4 0 6l10 10c2 2 4 4 6 2 3-1 5-5 7-7 1-3 5-6 5-9 0-5-9-6-15-7l6-10 7-10c6-6 12-12 21-14l13-1c3 0 6 2 9 1 6-3 9-11 15-14v11l3 15 1 26-12 13-8 8-6 7-11 7-10 4a101 101 0 01-51-1c-7-2-13-5-20-9l-18-13c-7-5-14-8-19-15v-1c0-13 2-26 7-39zm-22 79l-15-5-9-4c-2-2-5-4-3-7 2-2 7-2 9-1 3 1 4-2 3-4-2-2-13-8-10-12 2-3 11 0 13 1 2 0 4-2 3-4l-7-10-1-4c1-1 4 1 5 1l10 7 12 9 2 19 4 14h-16zm4 64l-6 2c-2 1-5 3-3 0l7-7c1-2-1-4-3-4l-8 2h-8c0-2 7-3 9-4l8-5c2-1 1-5-1-5-5 1-12 4-16 1-4-4 10-6 13-6 10-2 21-5 28-13l5 10 2 5c-6 11-16 18-27 24zm151-40l-11 18-7 7c-3 3-7 4-11 5-6 3-12 4-19 5h-19c-4 0-7-2-11-1h-1l-2 1-1 2-2 5-1 1c-3 0-4-1-3-3l2-5-1-3c-6-2-9-7-14-3l-8 4c-2 1-5 2-4-2l4-4v-4c-3-3-7-4-9-7l-4-8-9-21-2-8-1-2-3-11-2-11v-10l11 9c7 4 13 10 21 14a90 90 0 0047 15c8 0 17 0 25-2 8-1 14-5 21-8 7-4 11-11 17-17l7-8a59 59 0 016-5l-1 7v11a89 89 0 01-15 39zm52-27l-11 8c-8 5-19 8-29 8a83 83 0 008-25c1-7-1-15 1-22v-1l5-5 8-7c1-1 3-3 5-1l-1 5c-1 4-4 8-4 11-1 2 0 4 2 4l5-2 7-3c6 1-7 16-8 18s1 4 2 4c3-1 7-2 10-1 4 2 3 6 0 9z"/>
      <path d="M1020 991c-6 0-12 1-16 6s-6 12-6 18c0 11 12 24 24 23 5 0 12-5 15-8 4-4 7-11 7-16 2-14-12-22-24-23zm19 24c-1 3-2 8-5 11l-11 7c-10 2-20-10-20-18 0-5 1-10 4-14s8-5 13-5c10 0 21 7 19 19z"/>
    </g>
  </g>
  <g fill="#d8d0c8">
    <path d="M1169 840l-7-17-9-19c-6-9-16-17-26-23l6-9c2-4 4-9 4-14 2-9-1-18-5-26s-8-16-16-21c-3-1-7-2-9-4-3-1-1-7-1-10 1-5 1-13-6-11-3 1-7 5-9 7l-6 6h-9l-33 1h-29c-4 0-8-7-11-10-3-2-6-4-9-2-2 2-3 7-3 10-1 4-2 8-1 13l-10 7-9 8c-5 7-7 14-8 22-1 9-1 17 2 25 2 4 4 10 7 13l-2 1-2 3-7 7a88 88 0 00-23 32l-6 21c0 4 1 8 5 8 4 1 8-2 12-4 9-4 20-10 27-18 9 17 26 25 43 32l4 1-1 2c1 3 2 8 0 11l-6 10c-1 3 3 5 5 3l3-6v4l3 5c1 2 4 1 4-1l-2-10 9 9c3 2 6-2 4-4-4-4-9-9-15-11l1-10 3 1h15l18-1c-1 2 0 5 1 8v1l-5 11c-2 2 2 5 3 3l1-1 3-5 1 6c1 3 5 2 5-1v-1l-1-6 2 1 1 1c1 3 6 1 5-2l-4-4-6-4-1-2v-6a110 110 0 0016-4l7 11 6 10c3 4 7 10 12 11 8 1 7-5 5-11l3 2c3 2 7 3 9-1l1-6 3 1c4 1 6-3 6-6 0-6-3-10-6-14l-4-6-3-4-4-5 3-3 7-17 4 4 8 7 16 10c3 1 8 3 11 1 4-2 1-7 0-10zm-207 1l-13 8c-3 1-7 5-10 4-4 0 1-14 2-16 3-12 9-22 17-30l11-11 4-4-1 5-2 14c1 7 1 13 4 19-3 5-8 8-12 11zm161 20l8 11c0 1 2 6 1 7l-10-7-2-1c-2-2-5 0-4 3l3 2 4 8c1 4-3 0-5-1l-8-7c-2-3-6 0-4 3l5 12c2 7-5-2-7-4l-8-12c-2-4-3-7-6-10a441 441 0 0027-13l3 4 3 5zm-1-25c-4 7-8 13-16 17l-24 9a97 97 0 01-26 5c-9 0-18 2-27 0a130 130 0 01-43-24l-7-12 4-3 9-4 20-8c13-5 27-6 41-5 13 1 27 5 39 9l17 7 10 5 4 2-1 2zm3-6l-7-4-7-4-19-7c-12-4-26-8-39-9-14-1-27 0-41 5l-18 7-9 4-7 4-2-10v-13l1-8 2-7v-2c0-1 0-2-2-3-2 0-4-5-5-7l-4-10c-1-7 0-14 1-21s3-14 9-19l9-7 7-5v-1l1-2c-1-5 0-10 1-14l1-4 1-1 1 2 3 2 7 8c3 2 6 1 9 1h28l28-1h12c3-1 5-4 8-7l5-4c2-2 3-3 3 1l-2 11c-1 6 3 6 8 9 9 3 14 9 18 18 5 10 9 20 5 31l-7 13-2 4c-1 0-2 2-1 4l1 1 1 2c2 8 4 15 4 24 1 6 0 13-2 19zm38 16l-8-4-14-9-5-5-4-5 1-6c0-10-2-19-4-29 6 4 12 9 17 15 6 8 10 19 14 28l5 13c1 3 1 3-2 2z"/>
    <path d="M1112 729c-7-12-21-18-34-15-4 0-7 1-10 3l-8 8-6 8-3 6-2-5-6-7c-4-5-9-8-15-11-7-2-13-3-19 0-7 2-13 5-18 9-4 5-6 9-7 15-2 8-3 15-2 22 1 13 9 24 20 30 12 6 28 7 41 7 8 1 16-2 23-2a81 81 0 0041-16c6-4 8-8 10-14 2-13 1-26-5-38zm-58 20h4l-1 1c1 3-1 6-3 8l-4 5-2-4-4-5-4-6 14 1zm58 12c0 3 0 7-2 10-1 3-4 4-6 6l-16 10c-12 4-23 4-35 7-11 2-24 0-35-2-12-3-23-8-29-19-5-11-2-25 1-35 1-7 6-11 12-14s13-6 21-4c6 2 11 5 16 10 2 2 5 4 6 7l2 6h-8l-2 1-2 1c-1 7 6 14 10 19 2 2 3 5 6 4 3 0 5-4 6-5 3-4 9-13 5-17-2-2-5-2-7-2v-2l7-11c3-5 8-10 14-12 11-2 24 0 31 10 5 10 7 21 5 32z"/>
    <path d="M1028 738c-3-4-7-6-12-6-11-2-20 7-22 18-1 11 5 21 16 23 12 2 21-8 23-19 0-5-1-12-5-16zm-1 18c-2 8-9 14-18 11-8-2-11-9-10-16s6-13 13-14h2c6-2 11 3 12 8 1 4 2 7 1 11z"/>
  </g>
  <g fill="#d8d0c8">
    <path d="M877 113c-1-5-4-9-9-10l-3-1 1-2v-6c-3-5-9-5-14-4l-1 1c-3-12-5-24-9-35l-8-18-4-8-5-8c-3-5 3-13 4-19 0-3 0-7-4-8-3-1-6 2-8 3l-8 4-4 3-9-6-9-3-11-1-10-1c-8 1-17 1-25 3l-12 4-8 4c-3-5-6-8-11-11-2-2-8-8-11-4-4 3 0 12 1 16l1 10c1 2 2 4 1 6l-3 3c-9 10-15 24-18 37l-4 21-1 10c-2-3-5-5-8-6-4-2-9-1-11 3-2 2-2 4-2 6l1 6h-5c-2 1-4 3-4 6-1 5 0 12 6 15s13 2 20 3l8-1c2 7 6 14 10 19l8 9 10 7 14 7-2 5c-3 1-7 5-9 7-1 2 1 5 3 4l4-2h1l1 6h4l2-7 2 1 3 3c2 3 5-1 3-3-2-3-5-7-9-7l2-6 4 1c9 2 17 4 27 3l27-3 13-5h1c1 3 4 6 3 9l-1 1-2 8c0 2 3 4 4 2 2-1 2-3 2-4l1-2 4 5c1 2 5-1 3-3l-4-6 7 3c2 2 6-1 3-3l-7-4-5-1-4-6 6-3 9-7 10-9 7-9c1-3 2-7 5-8l1-2 8 1c6 1 13-1 19-4 4-1 8-4 8-9zm-198 8c-3 1-6 0-9-1h-6c-6 0-12-2-13-8l1-4c2-2 1-2 3-1h5c1 0 2-1 1-2 0-4-3-8-1-12 4-6 11 3 14 5l16 19-11 4zm154 7l-4 7c-3 4-5 8-9 11l-8 7c-3 3-7 4-11 6-1-1-3 0-3 1l-9 3a103 103 0 01-51 3c-8-2-17-4-24-8l-8-6-9-8c-4-5-10-13-12-20l7-3c2 0 2-1 2-2 1-1 2-3 1-4l-13-16v-2c-2-5-1-12 0-17l3-18c3-11 8-24 16-33 2-2 6-5 6-9l-1-6-2-9-1-8-1-3v1l3 2c6 3 10 7 13 12 0 1 2 2 3 1l9-5 12-3 23-3 11 1 9 1 9 3 9 7h3l5-4 5-2 5-3 2-1v3c-1 5-4 10-4 16-1 4 2 7 5 11l7 14a217 217 0 0115 48v1c-3 1-5 4-6 7l-7 9-4 6c-2-1-4 0-3 3v1l2 1 1 1 7 2-3 4zm36-11l-7 3c-5 2-11 1-17 1l-6-1-6-2 4-4 8-12 4-5 2-1c3-2 6-3 8-1 5 2-1 6 1 10 2 3 6 2 9 4s3 6 0 8z"/>
    <path d="M779 74c-1-3-4-4-7-4-4-2-9-1-13-1l-10 5-2 2c-1 0-2 2-1 4l9 12c2 4 4 8 8 9 3 2 5 1 7-1l6-13c1-3 4-9 3-13zm-8 13l-5 9c-1 1-1 1-3-1l-3-4c-3-4-5-9-9-13l5-3 10-1c2 0 7 0 8 3 1 2-2 8-3 10zM726 42l-1-1c-4-2-12-1-16 1-6 3-12 7-14 13-4 13 4 29 18 31s28-4 32-18c4-13-7-24-19-26zm14 26c-4 11-15 15-26 13-11-1-17-13-14-24 1-4 6-8 10-10l7-2h5l2 2c10 0 20 10 16 21z"/>
    <path d="M733 58c-2-8-10-13-18-9l-5 4c-3 3-4 7-4 11 1 8 8 13 16 12 9-1 14-10 11-18zm-14 2h2c2 3 1 3-3 1l1-1zM806 41l-1-1c-4-2-12 0-16 1-6 3-12 8-14 14-4 13 4 29 18 31s28-5 32-19c4-13-6-24-19-26zm14 26c-4 11-15 15-26 14-10-2-17-14-14-24 1-5 6-9 10-11l7-1 5-1 2 2c10 0 20 10 16 21z"/>
    <path d="M814 57c-3-7-11-13-19-8-2 0-4 1-5 3-3 3-4 7-4 11 1 8 9 14 16 13 9-1 14-10 12-19zm-15 3l2-1c2 3 1 4-3 2v-1h1zM746 110c-1-2-4-1-4 1l-2 1-3 3v-1l-3-3c-2-2-6 1-3 3 2 2 3 7 7 6l4-2 4-4v-4zM769 113l-2 2-1 1-1 1h-1l-1-2-2-3c-3-2-6 1-4 4 2 2 4 6 8 6s5-4 7-5c2-3-1-6-3-4zM795 109h-1l-1 2-2 3c-1 2 0 2-2 1l-2-2h-1c-1-3-6-2-5 1l5 5c2 1 4 3 6 1 2 0 3-2 4-4l4-6c1-3-4-4-5-1zM755 132l-2 3-2 3-2-2-1-2-1-1c-1-3-6-2-5 1l4 5 4 4c5 1 7-5 9-8 2-2-1-6-4-3zM780 132l-2 3-1 2v1l-3-3-4-3c-2-2-5 2-2 4s6 9 10 7l4-5 3-6c0-4-5-4-5 0z"/>
  </g>
  <g>
    <path d="M877 1113c-1-5-4-9-9-10l-3-1 1-2v-6c-3-5-9-5-14-4l-1 1c-3-12-5-24-9-35l-8-18-4-8-5-8c-3-5 3-13 4-19 0-3 0-7-4-8-3-1-6 2-8 3l-8 4-4 3-9-6-9-3-11-1-10-1c-8 1-17 1-25 3l-12 4-8 4c-3-5-6-8-11-11-2-2-8-8-11-4-4 3 0 12 1 16l1 10c1 2 2 4 1 6l-3 3c-9 10-15 24-18 37l-4 21-1 10c-2-3-5-5-8-6-4-2-9-1-11 3-2 2-2 4-2 6l1 6h-5c-2 1-4 3-4 5-1 6 0 13 6 16s13 2 20 3l8-1c2 7 6 14 10 19l8 9 10 7 14 7-2 5c-3 1-7 6-9 7-1 2 1 5 3 4l4-2h1l1 6h4l2-7 2 1 3 3c2 3 5-1 3-3-2-3-5-7-9-7l2-6 4 1c9 2 17 4 27 3l27-3 13-5h1c1 3 4 6 3 9l-1 1-2 8c0 2 3 4 4 2 2-1 2-3 2-4l1-2 4 5c1 2 5-1 3-3l-4-6 7 3c2 2 6-1 3-3l-7-4-5-1-4-6 6-3 9-7 10-9 7-9c1-2 2-7 5-8l1-2 8 1c6 1 13-1 19-4 4-1 8-4 8-9zm-198 8c-3 1-6 0-9-1h-6c-6 0-12-2-13-8l1-4c2-2 1-2 3-1h5c1 0 2-1 1-2 0-4-3-8-1-12 4-6 11 3 14 5l16 19-11 4zm154 7l-4 7c-3 4-5 8-9 11l-8 7c-3 3-7 4-11 6-1-1-3 0-3 1l-9 2a103 103 0 01-51 4c-8-2-17-4-24-8l-8-7-9-7c-4-5-10-13-12-20l7-3c2 0 2-1 2-2 1-1 2-3 1-4l-13-16v-3c-2-5-1-11 0-16l3-18c3-11 8-24 16-33 2-3 6-5 6-9l-1-6-2-10-1-7-1-3c-1-1-1 0 0 0l3 3c6 3 10 7 13 12l3 1 9-5 12-3 23-3 11 1 9 1 9 3 9 7h3l5-4 5-3 5-2 2-1v3c-1 5-4 10-4 15-1 5 2 8 5 12l7 14c3 5 6 11 7 17 4 10 6 20 8 31l-1 1-6 7-6 9-5 5c-1 0-3 1-3 4l2 2 2 1 6 2-2 4zm36-11l-7 3c-5 2-11 1-17 1l-6-1-6-2 4-4 8-12 4-5 2-1c3-2 6-3 8-1 5 2-1 6 1 10 2 3 6 2 9 4s3 6 0 8z" fill="#d8d0c8"/>
  </g>
  <g>
    <path d="M691-75c-2-6-7-7-12-7l2-2 3-6c1-3 2-8 0-11-4-4-8 0-12 2l1-5 2-6c0-3-1-8-5-8-4-1-8 2-11 5a76 76 0 00-8 7l-1-21c0-8-3-15-3-23 1-3 2-11-3-12-3 0-5 2-6 3l-7 7-4 4-5 1v-2c-7-10-21-11-32-10v-1l2-3v-6c-3-3-9 1-12 4-1-4-2-8-5-10-5-4-6 8-7 13l-3-3-5-4c-2-2-6-4-9-2-2 1-2 4 0 6l2 3h-2l-11 1c-4 1-10 3-13 6l-1 2c-4 0-8 1-10 3l-8-11-5-6c-6-2-7 7-7 10-1 9-5 17-7 26l-3 26-13-9c-4-2-10-7-15-6-8 2-3 11 1 17-5-1-10-1-12 3-2 3-1 7 1 9l4 4c-3 1-7 2-8 5-3 5 2 10 5 13l18 7c9 3 17 3 26 3l2 6 3 9-1 1c-6 6-15 10-23 11-6 1-15 1-19 6-4 3-2 7 2 9l5 2-4 1c-3 2-5 5-3 9 1 3 6 3 9 3h3l-2 5c-1 6 6 5 9 4 14-6 28-15 36-27l6 5c-1 2-3 4-3 7-2 5-13 6-17 5-3-1-4 3-1 4l1 1h3l-2 3c-1 3 2 5 4 3l1-2 1-1v5c0 3 5 3 5 0 0-2 1-6-1-9 4-1 7-2 9-4l3 1c4 0 7-1 10-3 2-1 4-4 5-3 2 0 4 2 5 3-1 4-2 9 1 12-2 4-7 5-9 8l-4 3c-2 2 1 6 3 4l3-2v2c0 3 3 4 5 2l1-4 1 2 2 2c1 3 6 0 4-3l-2-2-2-3-1-2v-1l4-4c5 0 7-8 9-11l8 1h12a76 76 0 0037-7c5-3 10-8 14-13l11-17 5-10c15 2 30-4 42-13 4-3 10-7 8-14zm-155-79l9-2 9-1h6c2 0 3-1 3-3 2 2 5 5 7 4s2-3 3-5l1-6v2l1 6c0 2 2 3 4 2l7-6c-1 2-3 5-2 8l2 1c10-1 23-2 30 6h-6c-6 1-13 2-18 6-6 4-10 9-15 14l-5 9-2 4-7-12a44 44 0 00-30-26l3-1zm37 63c-2 0-10-7-10-9l5-4 1 1 7 1 4 1c2 1 1 0 0 1l-2 3-3 4-1 2h-1zm-75-52c1-2 6-18 3-19l6 8 6 9c1 1 3 0 4-1h2l6-2c4 0 7-1 11 1 5 2 10 5 14 9l10 14c2 4 6 10 6 15-1 3-6 4-7 5-2 3-2 5 0 7 2 4 6 6 10 9 1 2 3 4 6 3s5-6 6-8c2-2 5-5 5-8 1-5-8-7-14-7l6-10c1-4 4-7 6-10 6-7 13-13 21-14 4-1 9-2 13-1 3 0 7 2 10 0 6-2 9-10 14-14 2 3 1 9 1 11l2 16c1 8 0 17 2 26-5 3-9 9-13 13l-8 8-6 6c-3 4-7 5-11 7l-10 5a101 101 0 01-50-1c-7-2-14-6-20-9l-19-13c-6-5-13-9-18-15l-1-1c0-13 3-27 7-39zm-22 78l-14-4-10-5c-2-1-5-4-2-6 2-2 6-2 9-2 2 1 4-2 2-4s-12-8-9-12c2-2 10 0 13 1 2 1 4-2 3-4l-7-10-1-3c1-2 3 0 4 1l11 7 11 8h1c0 6 0 13 2 19l3 15-16-1zm4 64l-6 3c-1 0-5 2-2-1l7-7c1-2-1-4-3-4l-9 3-8-1c0-2 8-3 9-3l8-6c3-1 2-4-1-4-4 0-11 4-15 0-5-4 9-6 12-6 10-1 22-4 28-13l5 10 3 6c-7 10-17 17-28 23zm152-39c-4 6-7 13-12 18l-7 7-10 5c-7 2-13 4-19 4l-20 1-10-2h-2l-2 1v3l-3 4-1 2c-3-1-4-2-2-4l1-5-1-3c-5-2-8-7-14-3l-7 5c-2 0-5 1-4-3l3-4c2-1 1-3 0-4-3-2-6-3-9-7l-4-8-9-21-2-8-1-1-2-12-3-11v-10c3 4 7 7 12 9l20 15c7 3 13 8 20 10 9 3 18 4 27 5l26-2c7-2 14-5 20-9 7-4 11-11 17-16l8-8a59 59 0 015-6v8l-1 10a89 89 0 01-14 40zm52-27l-11 8c-9 4-19 8-29 7a83 83 0 007-25l1-21v-1l5-5c3-3 5-6 9-8 1 0 3-2 4-1s0 4-1 6l-4 11c0 1 1 3 3 3l5-1c1-1 4-4 6-3 6 1-7 16-8 18 0 1 1 3 3 3 3 0 6-2 9 0 5 1 3 6 1 9z" fill="#d8d0c8"/>
  </g>
  <g fill="#d8d0c8">
    <path d="M450 233zM450 233zM612 122c-7 0-15 2-22 6v-20-19-19c-1-6-1-11-4-16 0-1-1-2-2-1-5 0-7 4-9 8l-3 8c-2 4-6 3-10 4l-22 3-21 1c-8 1-15 2-23 1l-23-3h-11c-4 0-6-1-9-5l-11-17-3-1c-4 2-3 8-3 11l-1 22v32c1 2 2 8 1 11-2-2-5-4-9-5h-20c-1 0-2 1-2 3l3 6 3 7c3 5 5 11 9 15s10 6 14 9l5 2 1 6 1 8c0 4 1 8 3 11a51 51 0 0010 15c2 2 2 3 2 5-1 3 0 6 1 9v1l-2 4-1 2-1 1c-3 1-7 2-8 5s4 5 5 2v2c-3 2 1 5 3 3l2-4 1 1v1l1 2c2 2 6-2 4-4h-1v-2l-2-2-1-1 1-2 1-2 2-4h3l5-6c1-3 1-3 3-1l4 3c8 4 19 5 28 6 9 0 19-1 28-3l5-2c2-1 3 1 5 2l8 2 2 3 1 2-1 9c0 3 4 5 5 2l1-4v1l4 1 2-2v-2h4c3 0 3-5 0-5h-9l-2-4-2-2 3-2c1-4-1-7-1-10l-1-1 3-1 6-4c4-2 6-6 9-9 2-4 5-6 6-11a150 150 0 004-17c9-4 18-11 24-19 3-5 16-26 4-26zm-174 37l-14-9-8-13-3-7-2-3h12c7 1 11 4 15 9 4 4 7 8 9 14l2 11c-3 0-7 0-11-2zm133 31l-6 8c-3 3-7 4-10 6-2 1-3 1-3 3-1 3 3 8 1 10l-3 1c-3 0-6-3-8-4s-3-2-6-1c-17 7-37 7-54 1-4-1-6-4-9-6-2-1-4-1-5 1l-3 3-2 3c-4 2-1-8-2-10 0-3-3-5-5-7l-8-11-2-13-1-8h3l4 2 2-2c1-5-1-11-2-16-1-6-5-12-9-17l-3-2v-1c3-4 1-10 1-14l-1-21V75l1-10v-5l10 16c4 4 9 3 14 3 17 1 33 5 50 3l21-1 11-1 12-2c6-1 12 1 16-4l4-9 4-7 2 16v18 39l-6 6c-3 5-6 10-7 16-1 5-1 12 2 16h5c-2 7-3 15-8 21zm38-54c-2 4-4 8-8 12-6 7-15 13-24 16v-11c1-5 3-9 6-12 6-9 16-12 26-14 3 0 3-1 3 2l-3 7z"/>
    <path d="M525 133c-1-3-6-3-9-4l-11 1h-3c-2 1-3 2-3 4 0 3 2 7 4 9 2 4 8 11 13 7 3-2 5-6 7-9 1-2 3-5 2-8zm-5 3l-1 2-4 5c-1 2-2 4-4 2l-3-3-3-5-1-2h15c1 0 1-1 1 1zM501 171zM508 169h-3l-2 2-1 1-1-1c-1-3-5-3-5 0s3 6 6 6l4-1 2-3v-4zM524 171l-2 1h-1 1l-1-1-2-2c-2-2-6 1-3 4 1 1 3 4 5 4l6-3c3-2-1-6-3-3zM522 172zM497 183c-2 0-3 1-3 3 0-1 0 0 0 0l-1-1v-1l-3-2-2 2c-1 3 2 6 5 7s6-2 6-5c1-2-1-3-2-3zM516 183l-2 2-1 1v-1l-2-3c-2-2-6 2-4 4s3 5 7 5c3 0 4-3 5-5 2-2-1-6-3-3zM538 181c-1 1-3 3-3 5h-1c0-4-5-4-5 0 0 3 4 6 7 5 1 0 3-1 3-3l2-3c3-3-1-6-3-4zM505 197l-1 2v1l-2-2c0-3-5-3-5 0s3 6 6 7c1 0 3 0 4-2l2-2c2-3-2-6-4-4zM527 197l-2 3v1l-1-1-1-2c-3-2-6 2-4 4s4 4 8 3l2-2 2-3c2-2-2-6-4-3zM555 120c-4-1-7 1-10 4-4 2-5 6-7 9s2 5 4 3c3-4 4-8 8-10 5-3 12 0 13 6 0 4 5 4 5 0 0-6-7-12-13-12zM477 117c-4 0-7 2-9 4-4 3-6 7-9 11-2 2 3 5 5 2 3-4 4-9 9-11 4-1 6-1 9 3l2 5c0 3 5 3 5 0 0-6-6-14-12-14z"/>
  </g>
  <g fill="#d8d0c8">
    <path d="M893 376l-7-17c-3-6-5-13-9-18-6-10-16-18-26-24l6-8c2-4 4-10 4-14 2-10-1-18-5-26s-8-16-16-21c-3-2-7-2-9-4-3-2-1-8-1-11 1-4 1-12-6-10-3 1-7 4-9 7l-6 5-9 1-33 1-14-1-15 1c-4 0-8-8-11-10-3-3-6-5-9-2-2 2-3 7-3 9-1 5-2 9-1 13l-10 7-9 9c-5 7-7 13-8 21-1 9-1 18 2 26l7 13-2 1-2 2-7 7a88 88 0 00-23 33c-3 6-5 14-6 21 0 4 1 7 5 8 4 0 8-3 12-4 9-4 20-10 27-19v1c9 16 26 25 43 31l4 2v1c0 4 1 8-1 11l-6 11c-1 3 3 5 5 2l3-6v5l3 5c1 1 4 0 4-2l-2-10 9 9c3 2 6-1 4-3-4-4-9-10-15-11v-11l4 1c5 2 10 1 15 1l18-2c-1 3 0 6 1 8v1l-5 11c-2 2 2 5 3 3h1v-1l3-5 1 6c1 3 5 3 5 0v-1l-1-7 2 1 1 1c1 3 6 2 5-1l-4-4-6-4-1-2v-7a110 110 0 0016-3l7 10c1 4 4 7 6 10 3 5 7 11 12 12 8 1 7-5 5-12l3 2c3 2 7 3 9 0l1-7 3 2c4 0 6-3 6-7 0-5-3-10-6-14l-4-5-3-5-4-4 3-4 7-16 4 4 8 6c5 4 10 8 16 10 3 1 8 4 11 1 4-2 1-7 0-10zm-207 2l-13 8c-3 1-7 4-10 4-4-1 1-14 2-17 3-11 9-21 17-30l11-10 4-5-1 5-2 15c1 6 1 13 4 19l-12 11zm161 20l8 11c0 1 2 5 1 6s-7-4-10-6l-2-2c-2-2-5 1-4 3l3 3 4 7c1 5-3 1-5 0l-8-7c-2-3-6-1-4 2l5 12c2 7-5-2-7-3l-8-13-6-10a441 441 0 0027-12l3 4 3 5zm-1-26c-4 8-8 14-16 18l-24 9a97 97 0 01-26 5c-9 0-18 2-27-1a130 130 0 01-42-24c-4-3-6-7-8-11l5-3 8-4 20-8c13-5 27-7 41-5 13 1 27 5 39 9l17 7 10 4 4 3-1 1zm3-6l-7-4-8-3-18-7c-13-4-26-8-39-9-14-1-27 0-41 4l-18 7-9 5-7 4-2-10v-13l1-8 2-7v-3c0-1 0-2-2-2s-4-6-5-7l-4-11c-1-7 0-14 1-21s3-13 9-18l9-8 7-4v-2l1-1c-1-5 0-10 1-14l1-5 2 1 3 3 7 8c3 2 6 1 9 0l14 1h14l28-1h12c3-1 5-5 8-7l5-5c2-1 3-2 3 1l-2 12c-1 6 3 6 8 8 9 4 14 10 18 18 5 10 9 20 5 32l-7 13-2 3c-1 1-2 3-1 4l1 2 1 2c2 8 4 15 4 23 1 6 0 13-2 19zm38 16l-8-3-14-10-5-4-4-5v-1l1-6c0-10-2-19-4-29l17 16c6 8 10 18 14 28l5 13c1 2 1 2-2 1z"/>
    <path d="M836 265c-7-12-21-17-34-15l-10 4-8 8-6 8-3 6-2-6-6-7c-4-5-9-8-15-10-7-3-13-3-19-1-7 2-13 6-18 10-4 4-6 9-7 15-2 7-3 14-2 22 1 13 9 24 20 29 12 7 28 7 41 8 8 0 16-2 23-3 8-1 16-2 23-5l19-11c5-4 7-7 9-14 2-13 1-26-5-38zm-58 20l4 1v1l-3 8-4 5-1-1-2-3-4-5-4-6h14zm58 13c0 3 0 7-2 9-1 3-4 5-6 7l-16 9c-12 5-24 5-35 7-12 2-24 1-35-2-12-3-23-7-29-19-5-10-2-24 0-35 2-6 7-10 13-13 6-4 13-7 21-5 6 2 11 5 16 10l6 8 2 6-8-1-2 1-2 2c-1 6 6 13 10 18 1 2 3 6 6 5s5-4 6-6c3-3 9-13 5-17-2-2-5-2-7-2v-2l7-10c3-6 7-11 14-12 11-3 24-1 30 10 6 9 8 21 6 32z"/>
    <path d="M752 274c-3-3-7-6-12-5-11-2-20 7-22 17-1 11 5 21 16 23 12 2 21-7 23-18 0-5-1-13-5-17zm-1 19c-2 8-9 14-18 11-8-3-11-9-10-17 1-6 6-13 13-14l2 1c6-2 11 3 12 8 1 3 2 7 1 11zM828 284c-1-5-3-11-8-13l-11-2c-5 0-10 3-14 6-4 4-5 11-5 16 2 10 16 20 26 17s15-14 12-24zm-12 18c-8 3-18-3-20-10-1-4 0-9 2-12l8-6c1 1 2 2 3 1v-1h2l8 2c3 2 4 6 5 9 1 7-1 15-8 17z"/>
    <path d="M738 285l-2-1-3 3v1c-1 1 0 4 1 5l3 1c3 0 4-2 4-5 1-2-1-4-3-4zM814 287v-1l-1-2h-6l-3 5c0 5 6 7 9 3 2-1 2-3 1-5z"/>
  </g>
  <g fill="#d8d0c8">
    <path d="M416 734c-1-5-4-9-9-10l-3-1 1-2v-6c-3-6-9-6-14-4l-1 1c-3-12-5-24-9-35-2-7-5-12-8-18l-4-8-5-8c-3-6 3-13 4-19 0-3 0-8-4-8-3-1-6 2-8 3l-8 4-4 3-9-6-9-3-11-1-10-1c-8 0-17 0-25 2l-12 4-8 4c-3-4-6-8-11-11-2-1-8-7-11-4-4 4 0 13 1 17l1 9c1 2 2 4 1 6l-4 4c-8 10-14 24-17 37l-4 21-1 10-8-7c-4-1-9 0-11 4-2 1-2 4-2 6l1 6c-2-1-3-2-5-1s-4 4-4 6c-1 6 0 12 6 15 6 4 13 3 20 4l8-1c1 6 6 13 10 19l8 8 10 8c4 3 9 5 14 6l-2 6c-3 0-7 5-9 7-1 2 1 4 3 4l4-2 1-1 1 6c1 2 4 2 4 0 1-2 2-4 1-7l3 1 3 4c2 2 5-1 3-4s-5-6-9-6l2-6 4 1c9 2 17 4 27 3 9 0 18-1 27-4l13-4 4 8-1 2-2 8c0 2 3 3 4 2l2-5 1-1 3 4c2 2 6 0 4-3l-4-5 7 3c2 2 6-1 3-4l-7-3c-2-1-3-2-5-1l-4-7 6-2 9-7 10-9 7-10c1-2 2-6 5-8l1-1 8 1c6 0 13-1 19-4 4-1 8-4 8-9zm-198 8c-3 1-6-1-9-1h-6c-6 0-12-2-12-8v-4c2-2 1-2 3-1h5l2-3c-1-3-4-7-2-11 4-6 12 2 14 5l16 19-11 4zm154 7l-4 7-9 10-8 8-11 5-3 1-9 3a103 103 0 01-51 3c-8-2-17-3-24-7l-8-7-9-7c-4-6-10-14-12-21l7-2c2 0 2-2 2-3 1 0 2-2 1-3l-13-16v-3c-2-5-1-11 0-16l3-18c3-11 8-24 16-33 2-3 6-5 6-9l-1-6-2-10-1-7-1-3c-1-1-1-1 0 0l3 3c6 3 10 6 13 12l3 1 9-5 12-4c8-2 16-2 24-2l10 1 9 1 9 3 9 6h3l5-3 5-3 5-3 2-1v4c-1 5-4 10-4 15-1 5 3 8 5 11l7 15c3 5 6 10 7 16 4 11 6 21 8 32h-1l-6 7-6 10-5 5c-1 0-3 1-3 3v1l2 2 2 1 6 2-2 4zm36-11l-7 3h-23l-6-2 4-5 8-11 4-5 2-1c3-2 6-3 8-1 5 2-1 6 1 10 2 3 6 2 9 4s3 5 0 8z"/>
    <path d="M318 695c-1-3-4-4-7-5h-13l-10 5-2 1c-1 1-2 3-1 4 4 4 6 9 9 13 2 3 4 7 8 9 3 1 5 1 7-2l6-12c1-4 4-9 3-13zm-8 12l-5 10c-1 1-1 1-3-1l-3-4c-3-4-5-9-9-13l5-3 10-2c2 0 7 1 8 3s-2 8-3 10zM265 662h-1c-4-3-12-1-16 1-6 2-12 7-14 13-4 13 4 29 18 31s28-4 32-18-7-25-19-27zm14 27c-4 10-15 15-26 13-10-1-17-14-14-24 1-5 6-8 10-10l7-2h5l2 1c10 1 20 11 16 22z"/>
    <path d="M272 679c-2-8-10-13-18-9l-5 4c-3 3-4 7-4 11 1 7 8 13 16 12 9-1 14-10 11-18zm-14 2h2c2 3 1 3-3 1v-1h1zM345 662l-1-1c-4-2-12-1-16 1-6 3-12 7-14 13-4 13 4 29 18 31s29-4 32-18c4-13-6-24-19-26zm14 26c-4 11-15 15-26 13-10-1-17-13-14-24 1-4 6-8 10-10l7-2h5l2 2c10 0 20 10 16 21z"/>
    <path d="M353 678c-3-8-11-13-19-9l-5 4c-3 3-4 7-4 11 1 8 9 13 16 12 9-1 14-10 12-18zm-15 2h2c2 3 1 4-3 1l1-1zM285 731v-1c-1-1-3 0-4 1l-2 2-2 3-1-1-3-3c-2-3-6 1-3 3 2 2 3 7 7 6 2 0 3-2 4-3l4-4v-3zM308 734l-2 2-1 1-1 1-1-1-1-1-2-3c-3-2-6 1-4 3 2 3 4 7 8 7s5-4 7-6-1-5-3-3zM334 729l-1 1v2l-3 3c-1 1 0 2-2 1l-2-2-1-1c-1-3-6-1-5 2l5 5c2 1 4 2 6 1l4-4 4-6c1-3-4-5-5-2zM294 753l-2 3-2 3-2-3-1-2h-1c-1-3-6-2-5 1l4 5c1 1 2 3 4 3 5 2 7-4 9-7 2-2-1-6-4-3zM319 752l-2 4-1 1v1l-3-2c-1-1-2-3-4-3-2-2-5 2-2 4s6 8 10 7l4-5 3-7c0-3-5-3-5 0z"/>
  </g>
  <g fill="#d8d0c8">
    <path d="M782 931c0 1 1 1 0 0z"/>
    <path d="M908 857c-3-8-8-15-16-18l10-17c2-7 1-15-1-21a52 52 0 00-19-26l-10-6-1-16c0-3 0-7-4-7-3 1-5 4-7 6l-8 10-18-2h-1v-4-6c0-1-2-2-3-1l-6 4c-1-4-2-12-6-12-2 0-3 2-4 4l-1 6-1 4c-3-3-8-6-11-5l-2 3 2 7-6-1h-16c-2 0-3-1-5-3l-9-8h-4v19c0 3 2 2-1 3-9 2-18 8-23 15-6 8-8 19-7 28 0 6 1 11 3 16 2 4 4 7 8 10-23 7-29 43-18 61l3 1c4 0 10-5 12-9l4-4c2 6 6 11 9 16 4 6 11 10 17 13l5 2-4 8c-1 2 0 3 1 4h1c1 0 3-1 3-3l4-7 2 1-2 6c-1 2-1 4 1 6 2 3 5-1 3-3h1v-1l1-3 1-4v1l1 5v3l1 4c0 3 5 3 5 0l-1-7-1-5a158 158 0 0058-1l-1 8c0 3 5 3 5 0v-5l1-4v-1h1l1 11c0 4 5 4 5 0v-6l-1-6-1-1 2-1 2 5 1 2 2 3c1 3 6 2 5-1l-3-5-1-2-1-3-1-1 4-2c7-5 12-11 17-17 3-4 7-10 9-16l11 11h3c3-4 3-10 3-15 1-7-1-13-3-20zm-173 31l-5 5-3 3c-9-18-3-52 21-53v2c3 2 1 12 0 15l-5 15-8 13zm155-12c-1 7-6 14-10 19-4 6-9 11-15 15l-21 9c-7 2-15 2-22 2-15 1-31 0-46-5-7-3-14-7-19-13-3-2-4-6-6-8-2-4-6-8-5-12l-1-1 2-5c3-7 6-14 7-21 0-4 1-11-2-15 0-1-1-2-3-2h-3l-1-2c-4-4-7-7-8-12-2-5-3-10-3-16 0-9 4-20 11-26l12-7c2-1 7-1 8-3 2-2 0-7 1-10v-6l-1-2 7 6c2 2 3 4 7 3h13l13 2 1-1c2 0 3-2 2-3l-3-5h1l6 5 4-1 1-8 1-2 2 7c0 1 2 2 3 1 2 0 4-3 6-4 0 4-5 9 1 10h11l12 2c2 0 3-2 3-3l7-7 3-5c2-2 1 0 0 1l1 7-1 12c0 2 3 3 4 2l8 4 8 7c4 5 8 11 10 17s3 12 1 18-6 12-10 17l-3-1-2 1-2 2 1 17a74 74 0 009 20zm15 10a55 55 0 01-19-31l-1-14c10 2 16 11 19 20a43 43 0 011 25z"/>
    <path d="M878 829c3-4 5-10 7-16 1-5 0-12-1-17-1-6-4-11-9-14-10-8-21-11-34-9-12 2-21 6-29 15-4-3-6-6-11-8a50 50 0 00-32-1c-5 1-8 5-11 9-7 8-9 18-8 29 0 5 1 10 4 15 1 3 4 5 6 7-3 4-4 11-5 15-2 8-2 16 1 24 3 7 8 15 14 20l9 6 10 6c8 3 18 2 26 2l27-3c14-4 30-13 36-27 4-8 4-16 3-25l-4-13c-2-3-3-6-5-7l6-8zm-4 21c2 4 2 9 3 13 0 9-2 18-8 24a69 69 0 01-49 20c-9 0-19 1-28-1l-11-6-10-8c-7-7-12-15-12-25-1-5 0-9 1-14l4-11c2 0 3-1 3-3l-1-2c-4-3-7-5-9-10-2-4-2-8-3-13 0-10 3-18 9-25s16-8 25-7c5 0 10 1 14 4l9 7h3c13-15 37-22 55-10 5 3 8 7 10 13 1 4 2 10 1 15a47 47 0 01-12 22c-3 1-2 5 0 5l1 2 5 10z"/>
    <path d="M786 794c0-1-1-2-2-1-4 0-10 0-14 3-3 4-6 9-6 14-1 10 6 21 16 22 6 1 11 0 15-3s7-8 7-13c1-10-6-20-16-22zm11 23c-1 9-10 12-18 10-7-2-11-10-10-17l4-10 8-2h1c9 0 17 10 15 19zM826 815c-2-2-6-1-8-2l-11 1c-2 0-2 2-2 3l-1 3c4 4 4 11 8 15 5 4 10-3 12-7 1-3 6-10 2-13zm-7 11l-4 5-3-6-2-6 5-1h5l3 1-2 3-2 4zM797 857l-3 3-1 2-1-2-3-3c-3-1-5 3-2 4l1 3 4 4c2 0 4-2 5-3l1-2 1-1c3-1 1-6-2-5zM821 859c-3 0-4 3-5 4l-3-3c-2-3-6 1-3 3 2 2 3 7 6 6 2 0 3-1 4-3l1-1 1-1h-1c3 0 3-5 0-5zM822 864zM844 854l-2 4v2l-1-1-2-2c-2-2-5 1-3 4 2 2 4 5 8 4l3-4v-2l2-3c0-3-5-5-5-2zM831 879l-1 3-1 2-3-4c-2-3-6 1-4 3 2 3 4 6 7 6l4-3c2-2 3-3 3-5 1-3-4-5-5-2zM808 881a16 16 0 00-3 4v-1l-2-2c0-1-1-2-3-2-1 1-2 2-1 3l2 4 3 3c4 2 5-3 7-5 3-2-1-6-3-4zM850 793h-2l-10 4c-4 4-6 10-6 15-1 11 7 19 18 20s18-10 19-20c0-12-8-20-19-19zm14 19c-1 8-6 16-15 14-8-1-14-6-12-15 0-3 2-6 4-9 2-4 6-4 11-4h1c7 1 11 6 11 14z"/>
    <path d="M784 806c-5 0-12 5-12 11 0 3 5 3 5 0s4-6 7-6c2 0 5 3 5 5 0 4 5 4 5 1 0-5-5-11-10-11zM863 814c-1-5-4-11-10-11-7 1-10 7-10 13-1 3 4 3 5 0 0-4 2-8 6-8 3 0 4 5 4 8 1 3 6 2 5-2z"/>
  </g>
  <g fill="#d8d0c8">
    <path d="M691 925c-2-6-7-7-12-7l2-2 3-6c1-3 2-8 0-11-4-4-8 0-12 2l1-5 2-6c0-3-1-8-5-8-4-1-8 2-11 5a76 76 0 00-8 7l-1-21c0-8-3-15-3-23 1-3 2-11-3-12-3 0-5 2-6 3l-7 7-4 4-5 1v-2c-7-10-21-11-32-10v-1l2-3v-6c-3-3-9 1-12 4-1-4-2-8-5-10-5-4-6 8-7 13l-3-3-5-4c-2-2-6-4-9-2-2 1-2 4 0 6l2 3h-2l-11 1c-4 1-10 3-13 6l-1 2c-4 0-8 1-10 3l-8-11-5-6c-6-2-7 7-7 10-1 9-5 17-7 26-2 8-3 17-3 26l-13-9c-4-2-10-7-15-6-8 2-3 10 1 16-5 0-10 0-12 4-2 3-1 7 1 9l4 4c-3 1-7 2-8 5-3 5 2 10 5 13l18 7c9 3 17 3 26 3l2 6 3 9-1 1c-6 6-15 9-23 11-6 1-15 1-19 6-4 3-2 7 2 9l5 2-4 1c-3 2-5 5-3 9 1 3 6 3 9 3h3l-2 4c-1 7 6 6 9 4 14-5 28-14 36-26l6 4c-1 3-3 5-3 8-2 5-13 6-17 4-3 0-4 4-1 5l1 1h3l-2 3c-1 3 2 5 4 3l1-2 1-1v5c0 3 5 3 5 0s1-6-1-9c4-1 7-2 9-4l3 1c4 0 7-2 10-3 2-1 4-4 5-3 2 0 4 1 5 3-1 4-2 9 1 12-2 4-7 5-9 8l-4 3c-2 2 1 5 3 4l3-2v2c0 2 3 4 5 1l1-3 1 2 2 2c1 2 6 0 4-3l-2-2-2-3-1-2v-1l4-5c5 1 7-7 9-10l8 1h12a76 76 0 0037-8c5-2 10-7 14-12l11-17 5-10c15 2 30-4 42-13 4-3 10-7 8-14zm-155-79l9-2 9-1h6c2 0 3-1 3-3 2 2 5 5 7 4s2-3 3-5l1-6v2l1 6c0 2 2 3 4 2l7-6c-1 2-3 5-2 8l2 1c10-1 23-2 30 6h-6c-6 1-13 2-18 6-6 4-10 9-15 14l-5 9-2 4-7-12a44 44 0 00-30-26l3-1zm37 63c-2 0-10-8-10-9l5-4 1 1 7 1 4 1c2 1 1 0 0 1l-2 3-3 4-1 2h-1zm-75-52c1-2 6-18 3-19 2 0 5 7 6 8l6 9h4l2-1 6-2c4 0 7-1 11 1l14 8 10 15c2 4 6 10 6 15v1c-1 2-6 3-7 4-2 3-2 5 0 7 2 4 6 6 10 9 1 2 3 4 6 3s5-6 6-8c2-2 5-5 5-8 1-5-8-7-14-7l6-10c1-4 4-7 6-10 6-7 13-13 21-15h13c3 0 7 2 10 0 6-2 9-10 14-14 2 3 1 9 1 11l2 16c1 8 0 17 2 26-5 3-9 9-13 13l-8 8-6 6c-3 4-7 5-11 7l-10 5a101 101 0 01-50-1c-7-2-14-6-20-9l-19-13c-6-5-13-9-18-15l-1-1c0-13 3-27 7-39zm-22 78l-14-4-10-5c-2-1-5-4-2-6 2-2 6-2 9-2 2 1 4-2 2-4s-12-8-9-12c2-2 10 0 13 1 2 1 4-2 3-4l-7-10s-2-3-1-4 3 1 4 2l11 7 11 8h1c0 6 0 13 2 19l3 15-16-1zm4 64l-6 3c-1 0-5 2-2-1l7-7c1-2-1-4-3-3l-9 2-8-1c0-2 8-3 9-3l8-6c3-1 2-4-1-4-4 0-11 4-15 0-5-4 9-6 12-6 10-1 22-4 28-13l5 10 3 6c-7 10-17 17-28 23zm152-39c-4 6-7 13-12 18l-7 7-10 5c-7 2-13 4-19 4l-20 1-10-2-2 1h-2v3l-3 4-1 2c-3-1-4-2-2-4l1-5-1-3c-5-2-8-7-14-3l-7 5c-2 0-5 1-4-3l3-4c2-1 1-3 0-4-3-2-6-3-9-7l-4-8-9-21-2-8-1-1-2-12-3-11v-10c3 4 7 6 12 9l20 15 20 10c9 3 18 4 27 5l26-2c7-2 14-5 20-9 7-4 11-11 17-16l8-8a59 59 0 015-6v8l-1 10a89 89 0 01-14 40zm52-27l-11 8c-9 4-19 8-29 7a83 83 0 007-25l1-21v-1l5-6 9-7c1 0 3-2 4-1s0 4-1 5l-4 12c0 1 1 3 3 3l5-1c1-1 4-4 6-3 6 1-7 16-8 18 0 1 1 3 3 3 3 0 6-2 9-1 5 2 3 7 1 10z"/>
    <path d="M557 949l-2 3-2 2h-1l-1-1v-3c-1-3-6-3-5 0 0 3 2 8 5 9 5 1 7-4 9-6 3-3-1-6-3-4zM584 950l-3 4h-2l-1-1s0-1 0 0c0-3-5-3-5 0s4 7 7 7c4 0 5-4 8-7 2-2-1-5-4-3zM548 964l-1 3-1 1h-1l-1-1v-1c0-1-1-2-3-2l-2 2c0 3 3 8 7 8 3 0 5-5 6-7 2-3-3-6-4-3zM572 965l-2 3-1 1v-1l-2-2h-3v3c1 2 3 5 6 5l3-2 2-3c2-3-1-6-3-4zM601 962l-3 2-1 3v1l-1-1c1-1-1-3-2-3-2 0-2 2-3 3 0 3 3 8 7 7 1-1 3-2 3-4l2-4c0-2 0-3-2-4zM562 984zM562 984zM562 984zM562 984s1 0 0 0c3-1 2-6-1-5l-3 2v1h-1l-1-2c-2-3-6 1-4 3s3 4 6 4c1 1 2 0 3-1l1-2zM585 978l-2 3c0-1 0 0 0 0l-1 1v1l-2-2c-3-2-6 1-4 4l3 1 1 2h5c2-2 3-5 3-7 0-1-1-3-3-3zM531 860c-6 0-12 2-16 7-3 4-5 11-5 17 0 12 12 24 24 23 5 0 11-4 15-8s6-10 7-16c1-14-12-22-25-23zm20 24l-5 11c-3 3-8 7-12 7-9 2-19-9-19-18 0-4 1-9 4-13 3-5 7-5 12-6 10 1 22 8 20 19zM632 871l-6-6-5-2-4-2-3 1c-6-1-13-2-18 3-4 4-6 10-7 16-3 12 7 23 19 26 7 2 12 1 17-3s9-9 10-15c2-6 1-12-3-18zm-1 15c-1 5-4 9-7 12-5 4-9 6-15 4-10-2-17-11-15-21 1-5 2-10 6-13 4-4 11-2 16-1l9 3c4 4 6 10 6 16z"/>
    <path d="M535 880l-2-1h-3l-3 3v1l-1 2c0 2 2 4 4 4 3 2 7 0 8-4 0-2-1-4-3-5zM616 885v-4c-3-3-8-2-10 1-3 4-1 10 4 9 2 0 5-2 5-5l1-1z"/>
  </g>
  <g fill="#d8d0c8">
    <path d="M706 676zM706 676s1 0 0 0zM868 564c-7 0-15 2-22 6l1-19-1-10 1-10-1-19c-1-5-1-11-3-16l-3-1c-4 1-7 5-8 9l-4 8c-2 4-6 3-10 3-7 1-14 4-22 4l-21 1-22 1-24-3-10-1c-5 0-7 0-9-4l-12-18h-3c-3 1-3 8-3 11l-1 21v23l1 10 1 10c-3-2-6-4-9-4l-20-1c-2 1-3 2-3 4l3 5 4 8c2 5 4 10 9 14l14 10 4 2h1v5l1 8 4 12a51 51 0 0010 14l1 6c0 2 0 6 2 8v1l-3 4-1 2-1 2c-3 0-7 1-8 5 0 3 4 4 5 1v2c-2 2 1 6 4 4l1-5 1 1v1l1 2c3 2 6-1 4-3v-1l-1-1-1-2-1-2 1-1 1-2 2-4 2-1c3-1 4-4 5-6 2-2 1-2 3-1l5 4c8 4 18 5 27 5 10 1 19 0 28-3l6-2 5 2c2 2 5 3 8 3l1 3 2 1v1l-1 9c-1 3 4 5 5 1v-3l4 2c2 0 3-1 3-3l-1-1h4c4 0 4-5 0-5l-5-1h-3l-2-3-2-2 2-2c2-4 0-7-1-11v-1l2-1 7-3 8-10c3-3 5-6 6-10a150 150 0 004-17c9-5 18-12 24-20 4-4 16-26 4-26zm-174 37l-14-8-7-13-4-8-1-2h11c7 0 11 4 15 8s8 9 9 15l3 10c-4 0-8 0-12-2zm134 31l-7 8c-2 3-6 5-10 6-1 1-3 2-3 4s3 8 2 10c-2-1-3 0-3 1l-8-4c-3-2-4-2-7-1-17 6-36 6-54 1-4-1-5-4-9-6h-5l-3 4-2 3c-3 2-1-8-1-10-1-3-4-5-6-7-3-4-6-7-7-12-2-4-2-8-3-13l-1-8 4 1c0 1 1 2 3 2l2-2c1-5 0-11-2-16-1-6-5-12-9-17l-3-3h1c2-4 0-10 0-14l-1-22v-20l1-9v-6c4 6 6 12 11 17 3 4 8 3 13 3 17 1 33 5 50 3l22-1 10-1 13-2c5-1 12 0 15-5l4-8 4-7c2 5 2 11 2 16v18 37l1 1c-3 2-5 4-6 7-4 4-7 10-8 16 0 4-1 12 2 16h5c-1 7-2 15-7 20zm38-53l-8 12c-7 6-15 13-24 16v-12l5-12c6-9 16-12 27-13 2-1 2-1 2 1l-2 8z"/>
    <path d="M782 576c-1-3-6-4-9-4h-12c-1-1-2 0-3 1-2 0-3 1-3 3 0 3 3 7 4 10 3 4 8 10 13 6l7-8c1-2 4-5 3-8zm-6 2l-1 2-3 6c-2 1-3 3-5 1l-3-3-3-4-1-3h1c4 0 10-1 14 1h1zM757 613zM765 612h-4l-2 2v1l-1-1h-1v-1 0c0-3-5-3-5 1 1 2 3 5 6 6l4-2 3-3v-3zM780 613l-1 1-1 1v-1 0l-1-1-1-1c-3-3-6 1-4 3l5 5c3 0 5-2 7-3 2-2-1-6-4-4zM778 615zM753 626l-2 2v1h-1v-1l-1-1-2-3c-2 0-3 2-3 3 0 3 3 6 5 7 4 1 7-3 7-6 0-1-1-2-3-2zM772 625l-1 3-1 1-1-1-2-3c-2-2-5 1-3 4 2 2 3 5 6 5s4-3 6-5c2-3-2-6-4-4zM794 624l-3 5c1 0 1 0 0 0v-1c-1-3-6-3-5 0 0 3 3 6 6 6 2 0 3-2 4-3l2-4c2-2-2-6-4-3zM762 640l-2 2-1-1c-1-3-6-3-5 0 0 3 2 6 5 6 2 1 3 0 4-1l2-3c2-2-1-6-3-3zM784 639l-3 4c0 1 0 0 0 0l-2-2c-2-2-6 1-3 4 2 2 4 4 7 3l3-3 1-2c2-3-1-6-3-4zM811 562c-4 0-7 2-10 4-3 3-4 6-6 10-2 2 2 5 4 2s3-7 8-10c4-2 12 1 12 7 1 3 6 3 5 0 0-6-6-13-13-13zM734 560c-4 0-7 1-10 4-4 3-5 7-8 10-2 3 2 5 4 3 3-4 5-9 10-11 3-2 6-1 8 2l3 6c0 3 5 3 5 0 0-6-6-14-12-14z"/>
  </g>
  <g fill="#d8d0c8">
    <path d="M642 383c-2-6-7-7-12-7l2-2 4-6c1-3 1-8-1-11-4-4-8-1-12 1l1-4 2-6c0-4 0-8-5-9-4 0-8 3-11 5a76 76 0 00-7 8l-1-21c-1-8-3-15-3-23 0-3 1-11-4-12l-6 3-7 7-4 4-5 1v-2c-7-10-21-11-32-10v-1l2-3v-6c-3-3-9 1-12 4-1-4-2-8-4-10-6-4-7 8-8 13l-3-3-4-4c-3-2-7-4-10-2-2 1-2 4 0 6l2 3h-2l-11 1c-4 1-10 3-13 6l-1 2c-4 0-8 1-10 3l-8-11-5-6c-6-2-6 7-7 10-1 9-5 17-7 26-1 8-3 17-3 26l-13-9c-4-2-10-7-15-6-8 2-3 10 1 16-4 0-10 0-12 4-1 3 0 7 1 9l4 4c-3 1-7 2-8 5-3 5 2 10 5 13l18 7c9 3 17 3 26 3l2 6 3 9-1 1c-6 6-15 9-23 11-6 1-15 1-19 6-4 3-2 7 2 9l5 2-4 1c-2 2-5 5-3 9 2 3 6 3 9 3h3l-2 4c-1 7 6 6 9 4 15-5 28-14 36-26l6 4c-1 3-3 5-3 8-2 5-13 6-17 4-3 0-4 4-1 5l1 1h3l-2 3c-1 3 2 5 4 3l1-2 1-1v5c0 3 5 3 5 0v-9l8-4 3 1c4 0 8-2 10-3s4-4 6-3l4 3c-1 4-2 9 1 12-2 4-7 5-9 8l-4 3c-2 2 1 5 3 4l4-2-1 2c0 2 3 4 5 1l1-3 1 2 2 2c1 2 6 0 4-3l-2-2-2-3-1-2v-1l4-5c5 1 7-7 9-10l8 1h12a76 76 0 0037-7c6-3 10-8 14-13l11-17 5-10c15 2 30-4 42-13 4-3 10-7 8-14zm-155-79l9-3h16c1 0 2-1 2-3 2 2 5 5 7 4s3-3 3-5l1-6v2l1 6c0 2 2 3 4 2l7-6c-1 2-3 5-2 8l3 1c9-1 22-2 29 6h-6c-6 1-12 2-18 6l-14 14c-3 3-4 6-5 9l-3 4-6-12a44 44 0 00-30-26l2-1zm37 63c-2 0-10-8-10-9l5-4 1 1 7 1 4 1c2 1 1 0 0 1l-2 3-3 4-1 2h-1zm-75-53c1-1 6-18 3-18 2 0 5 7 6 8l6 8c1 2 3 1 4 0h2l6-2c4-1 7-1 11 1l14 8c4 4 7 10 10 15 2 4 6 10 7 15h-1c-1 3-5 3-7 5s-2 5 0 7l10 9c2 2 3 4 6 3l7-8 5-8c0-5-9-7-15-7l6-11 6-9c6-7 13-13 22-15l12-1c3 1 7 3 10 1 6-2 9-11 15-14v11l2 16 2 26c-5 3-9 9-13 13l-7 8-7 6-11 7-10 5a101 101 0 01-50-1c-7-2-14-6-20-10-7-3-12-8-19-13-6-4-13-8-18-15v-1c-1-12 2-26 6-39zm-21 79l-15-4c-3-1-7-2-10-5-2-1-5-4-2-6 2-2 6-2 9-1 2 0 4-3 2-5s-12-8-9-12c2-2 10 0 13 1 2 1 4-2 3-4l-7-10-1-3c1-2 4 0 4 1l11 7 12 8c0 6 0 13 2 19l3 15-15-1zm3 64l-5 3c-2 0-6 2-3-1l7-7c1-2-1-4-3-4l-9 3-7-1c-1-2 7-3 8-4l9-5c2-1 1-5-2-4-4 0-11 4-15 0-5-4 9-6 12-6 10-1 22-4 28-13l5 10 3 6c-7 10-17 17-28 23zm152-39c-4 6-7 13-12 18l-7 7-10 5c-6 2-13 4-19 4l-20 1-10-2-2 1h-1l-1 3-3 4-1 2c-2-1-3-2-2-4l1-5c1-1 0-2-1-3-5-2-8-7-14-3l-7 5c-2 0-5 1-4-3l4-4c1-1 1-3-1-4-3-2-6-3-8-7l-5-8-8-21-3-8v-1l-3-12-3-11v-10l12 9 20 15 21 10c8 3 17 4 26 5 9 0 17-1 26-3 7-1 14-4 20-8 7-4 11-11 17-16l8-8a59 59 0 015-6v8l-1 10a89 89 0 01-14 40zm52-28l-11 8c-9 5-19 9-29 8a83 83 0 007-25l1-21 1-1 4-6 9-7c1 0 3-2 4-1v5l-5 12c0 1 1 3 3 3l5-1c1-1 5-4 6-3 7 1-7 16-8 18 0 1 1 3 3 3 3 0 6-2 9-1 5 2 3 7 1 9z"/>
    <path d="M508 407l-2 3-1 2h-1-1v-1l-1-3c-1-3-6-3-5 0 0 3 2 8 5 9 5 1 7-4 10-7 2-2-2-5-4-3zM535 408l-3 4h-1l-1-1h-1c0-3-5-3-5 0s4 7 7 7c4 0 5-4 8-7 2-2-1-5-4-3zM499 422l-1 3-1 1h-1l-1-1v-1c0-1-1-2-3-2l-2 2c0 3 3 8 7 8 3 0 5-5 6-7 2-3-2-6-4-3zM523 423l-2 3-1 1v-1l-2-2h-3v3c1 2 3 5 6 5l4-2 1-4c2-2-1-5-3-3zM553 420l-4 2v3l-1 1v-1l-3-3-2 3c-1 3 2 8 6 7 2-1 3-2 3-4l2-4c1-2 0-3-1-4zM513 442zM513 442zM513 442zM513 442s1 0 0 0c3-1 2-6-1-5l-3 2v1l-1-1-1-1c-2-3-6 1-4 3s3 4 6 4c1 0 2 0 3-2l1-1zM537 436c-2 0-3 2-3 3 0-1 0 0 0 0l-1 1v1l-2-2c-2-2-6 1-3 4l2 1 1 2h5c2-2 3-5 3-7l-2-3zM483 318c-6 0-12 2-16 7-4 4-6 11-6 17 0 12 12 24 24 23 5 0 11-4 15-8s6-10 7-16c1-14-12-22-24-23zm19 24l-5 11c-3 3-8 7-12 7-9 2-19-9-19-18 0-4 1-10 4-13 3-5 7-6 12-6 10 1 22 8 20 19zM583 329l-6-6-5-2-4-2-3 1c-6-1-12-2-18 3-4 3-6 10-7 16-3 12 7 23 19 26 7 2 12 1 17-3s9-9 10-15c2-6 1-12-3-18zm-1 14c-1 6-3 10-7 13-5 4-9 5-15 4-9-2-17-11-15-22 1-4 2-9 6-12 4-4 11-2 16-2 3 2 7 2 9 4 4 4 7 10 6 15z"/>
    <path d="M486 338l-2-1h-3l-3 3v1l-1 2c1 2 2 4 4 4 3 2 7 0 8-4 0-2-1-4-3-5zM567 343v-4c-3-3-8-2-10 1-3 4-1 9 4 9 2 0 5-2 6-5v-1z"/>
  </g>
</svg>
